<?xml version="1.0" standalone="no"?>
<!DOCTYPE svg PUBLIC "-//W3C//DTD SVG 20010904//EN"
 "http://www.w3.org/TR/2001/REC-SVG-20010904/DTD/svg10.dtd">
<svg version="1.0" xmlns="http://www.w3.org/2000/svg"
 width="1600.000000pt" height="218.000000pt" viewBox="0 0 1600.000000 218.000000"
 preserveAspectRatio="xMidYMid meet">

<g transform="translate(0.000000,218.000000) scale(0.100000,-0.100000)"
fill="#000000" stroke="none">
<path d="M534 2096 c-101 -101 -319 -306 -442 -415 -69 -62 -92 -88 -92 -107
0 -23 2 -24 23 -13 25 14 77 67 77 80 0 4 6 6 12 4 7 -3 24 11 38 30 15 21 31
33 40 29 8 -3 11 -2 7 2 -4 4 2 13 13 21 11 8 20 21 20 29 0 8 4 13 9 9 6 -3
15 4 21 15 6 11 15 20 20 20 12 0 65 53 62 62 -1 4 6 4 16 1 9 -3 14 -3 10 1
-6 7 78 96 91 96 3 0 19 18 36 40 18 25 35 38 43 35 10 -3 12 0 8 10 -3 8 -1
15 5 15 6 0 38 27 71 60 l61 60 -34 -1 c-28 -1 -47 -15 -115 -83z"/>
<path d="M1247 2057 c-265 -366 -430 -634 -611 -992 -144 -285 -249 -533 -352
-837 -63 -186 -72 -228 -52 -228 9 0 24 34 42 98 16 53 34 111 41 127 7 17 17
43 24 58 6 15 11 37 11 48 0 11 4 17 10 14 6 -3 7 1 4 9 -3 9 1 23 10 31 15
15 16 14 17 -12 1 -15 1 -31 0 -35 0 -5 3 -8 9 -8 5 0 10 8 10 18 0 9 16 29
35 45 32 26 34 31 33 82 -1 45 -5 55 -19 55 -20 0 -34 17 -19 22 6 2 12 14 15
28 8 39 67 170 76 165 4 -3 5 3 2 13 -2 10 5 34 16 53 12 19 26 45 32 59 6 14
15 33 20 42 5 10 9 26 9 35 0 16 2 16 11 3 8 -12 9 -12 8 5 -2 11 7 36 19 55
12 19 22 45 22 58 0 13 4 21 8 18 5 -3 29 34 53 82 24 48 49 94 55 102 6 8 27
45 47 82 19 37 38 64 42 60 4 -4 6 -1 3 7 -2 8 6 25 18 38 13 14 20 31 17 39
-3 8 1 14 11 14 9 0 16 5 16 10 0 6 18 38 40 71 22 33 40 65 40 70 0 5 4 9 9
9 5 0 12 8 15 18 13 34 37 72 47 72 5 0 9 6 9 14 0 8 3 16 8 18 4 2 20 23 36
47 16 25 33 50 37 55 5 6 20 25 34 42 14 18 25 37 25 42 0 6 7 15 17 20 10 6
14 16 10 26 -4 9 -3 15 2 11 10 -6 71 66 71 84 0 6 3 11 8 11 4 0 15 12 25 25
18 25 18 25 -10 24 -24 0 -40 -17 -116 -122z"/>
<path d="M1850 2017 c-190 -186 -398 -411 -512 -553 -26 -32 -72 -89 -102
-126 -30 -38 -65 -83 -77 -100 -39 -57 7 -6 172 192 85 101 197 229 249 284
161 167 254 262 245 246 -5 -8 30 24 78 72 48 48 87 85 87 83 0 -3 12 8 28 24
15 15 34 31 42 34 8 3 2 6 -15 6 -26 1 -54 -23 -195 -162z"/>
<path d="M14532 2150 c0 -19 2 -27 5 -17 2 9 2 25 0 35 -3 9 -5 1 -5 -18z"/>
<path d="M11572 1841 c5 -35 -6 -41 -22 -11 -6 11 -15 18 -21 14 -5 -3 6 -23
26 -45 32 -36 48 -68 26 -54 -5 3 -12 1 -15 -4 -7 -10 19 -23 28 -13 11 11 45
12 51 2 3 -6 11 -10 17 -10 6 0 4 8 -5 18 -10 10 -17 24 -17 30 0 7 -4 12 -9
12 -6 0 -12 17 -14 38 l-4 37 -1 -43 c-2 -54 -22 -47 -22 8 0 21 -5 42 -11 46
-8 5 -10 -3 -7 -25z"/>
<path d="M11640 1820 c-12 -8 -11 -14 9 -41 13 -17 25 -46 26 -63 2 -26 7 -31
26 -28 20 2 88 66 89 85 1 17 -21 5 -37 -20 -43 -67 -56 -63 -52 19 2 33 -1
53 -9 56 -8 2 -12 -8 -12 -30 -1 -28 -2 -30 -11 -15 -6 10 -8 25 -5 33 6 16
-2 18 -24 4z"/>
<path d="M11510 1801 c0 -5 5 -13 10 -16 20 -13 10 -27 -15 -21 -29 7 -32 -6
-10 -44 l15 -25 -6 28 c-5 21 -3 27 11 27 9 0 14 -4 11 -9 -4 -5 -2 -20 3 -33
9 -22 10 -22 12 7 1 17 1 34 0 39 -1 5 5 6 14 3 25 -10 17 8 -15 31 -16 13
-30 18 -30 13z"/>
<path d="M11726 1788 c-12 -46 -6 -65 10 -29 8 20 11 38 6 43 -6 6 -12 0 -16
-14z"/>
<path d="M12283 1792 c-12 -7 -126 -252 -120 -258 1 -2 54 8 117 22 107 22
117 27 148 61 35 40 42 82 16 107 -22 23 -39 20 -79 -15 -40 -35 -41 -35 -20
15 12 27 13 42 5 56 -11 20 -45 26 -67 12z"/>
<path d="M3182 1754 c-21 -15 -22 -17 -8 -33 13 -15 14 -24 5 -52 -11 -30 -49
-80 -49 -64 0 4 -12 -8 -27 -26 -16 -18 -27 -37 -26 -41 2 -4 -5 -7 -15 -6
-32 2 -52 -2 -52 -12 0 -5 7 -10 15 -10 8 0 15 -6 15 -14 0 -15 -64 -31 -82
-20 -8 5 -9 0 -5 -17 4 -13 7 -48 7 -76 0 -46 3 -53 20 -53 13 0 20 -7 20 -20
0 -11 5 -20 10 -20 6 0 10 -5 10 -11 0 -6 -8 -8 -19 -4 -11 3 -22 1 -26 -5 -3
-5 -15 -10 -26 -10 -10 0 -19 -5 -19 -11 0 -6 9 -8 21 -4 16 5 20 3 19 -12 -6
-51 1 -134 10 -128 6 4 10 -6 9 -22 0 -25 -1 -26 -9 -8 -7 15 -9 10 -9 -24 -1
-30 -4 -42 -11 -35 -13 13 -29 131 -23 168 4 27 3 29 -12 16 -15 -12 -19 -11
-33 6 -20 24 -66 54 -83 54 -7 0 -6 -8 4 -23 8 -13 17 -32 20 -42 3 -15 5 -13
6 8 1 32 21 37 21 6 0 -12 7 -27 14 -33 8 -6 25 -51 38 -101 l24 -90 55 0 c54
0 55 0 53 28 -1 16 -5 31 -8 34 -3 4 1 17 9 29 8 13 18 60 21 107 7 84 6 85
-20 102 -25 17 -38 65 -16 65 6 0 10 -7 10 -15 0 -11 6 -12 22 -6 35 13 32 28
-6 42 -31 11 -36 17 -35 44 l1 30 13 -30 c7 -16 15 -30 17 -30 2 0 17 11 33
23 l30 24 -29 23 -29 24 27 35 c24 31 29 34 46 23 11 -6 20 -15 20 -19 0 -5 7
-8 15 -8 8 0 14 -3 14 -7 -4 -27 4 -52 26 -77 19 -22 23 -37 20 -62 -3 -29 -1
-34 15 -34 11 0 20 -4 20 -9 0 -5 9 -13 20 -16 11 -4 18 -11 15 -16 -3 -5 3
-19 14 -31 30 -31 17 -35 -16 -4 -33 31 -57 34 -48 7 6 -20 -3 -51 -15 -51 -4
0 -8 16 -8 37 0 22 -6 39 -16 45 -8 5 -21 14 -28 21 -7 8 -24 16 -36 19 -22 6
-23 5 -8 -11 9 -10 16 -32 16 -49 0 -21 6 -32 18 -35 15 -4 14 -6 -5 -12 -12
-4 -24 -13 -27 -20 -3 -10 8 -12 53 -8 40 4 61 2 66 -7 12 -19 -18 -41 -64
-47 -48 -7 -56 -15 -41 -43 8 -14 8 -20 -1 -20 -6 0 -16 14 -22 30 -6 17 -15
30 -19 30 -12 0 4 -33 30 -62 18 -20 23 -35 20 -61 l-4 -34 51 -2 c27 -1 59
-3 70 -4 18 -2 21 6 26 73 6 84 22 147 49 201 22 42 80 113 116 141 l25 20 24
-26 c17 -19 33 -26 57 -25 20 1 25 3 13 6 -11 2 -27 7 -35 10 -8 3 -18 5 -22
5 -5 -1 -8 2 -8 7 0 16 56 31 69 18 15 -15 13 4 -2 25 -20 25 -106 3 -151 -39
-18 -18 -36 -30 -39 -27 -11 11 70 83 99 89 47 10 76 26 34 19 -43 -8 -87 -29
-119 -58 -20 -17 -23 -18 -18 -3 4 11 1 17 -8 17 -16 0 -20 18 -7 35 4 6 25
25 47 44 37 32 60 73 48 85 -3 3 -29 -15 -58 -39 -29 -25 -56 -45 -60 -45 -4
0 -4 12 0 28 13 46 6 74 -31 132 -68 103 -94 118 -142 84z m24 -172 c16 -10
34 -48 27 -56 -11 -11 -49 -6 -68 8 -19 14 -19 15 -1 35 21 23 25 24 42 13z
m129 -81 c19 -8 19 -8 -3 -20 -25 -13 -42 -7 -42 15 0 15 14 17 45 5z m-17
-98 c6 -15 12 -36 12 -46 0 -15 5 -18 25 -15 14 3 28 0 32 -6 3 -6 3 -8 -1 -4
-5 4 -18 3 -31 -2 -20 -8 -25 -5 -35 23 -6 18 -16 40 -21 49 -11 21 -11 28 -1
28 4 0 13 -12 20 -27z"/>
<path d="M11441 1758 c-1 -9 4 -20 9 -23 20 -12 10 -26 -11 -15 -11 6 -25 9
-32 7 -7 -2 10 -14 36 -27 54 -26 57 -43 6 -48 -19 -2 -38 -8 -44 -14 -7 -8
-2 -9 15 -4 14 3 40 6 58 6 20 0 31 4 27 10 -3 6 1 10 9 10 23 0 20 7 -16 43
-18 18 -38 41 -45 52 -10 17 -12 17 -12 3z"/>
<path d="M9101 1734 c-7 -8 -11 -18 -7 -21 9 -10 36 6 36 22 0 19 -11 19 -29
-1z"/>
<path d="M7810 1715 c-31 -33 -18 -43 15 -12 15 13 23 27 18 30 -6 4 -21 -5
-33 -18z"/>
<path d="M8374 1726 c-6 -7 -25 -11 -43 -10 -28 2 -31 -1 -31 -24 1 -24 2 -25
13 -10 7 9 29 18 47 20 24 2 36 9 38 21 4 20 -8 22 -24 3z"/>
<path d="M8790 1732 c0 -7 -14 -12 -34 -12 -32 0 -56 -24 -40 -39 4 -3 9 0 11
7 3 6 20 12 38 12 37 0 54 15 36 33 -8 8 -11 8 -11 -1z"/>
<path d="M9530 1732 c0 -7 -14 -12 -34 -12 -32 0 -56 -24 -40 -39 4 -3 9 0 11
7 3 6 20 12 38 12 37 0 54 15 36 33 -8 8 -11 8 -11 -1z"/>
<path d="M9790 1733 c0 -7 -9 -15 -20 -18 -11 -3 -20 -13 -20 -21 0 -19 10
-17 39 7 18 15 21 23 13 31 -9 9 -12 9 -12 1z"/>
<path d="M7434 1709 c-3 -6 -14 -9 -24 -6 -16 4 -19 -5 -25 -82 -4 -47 -13
-89 -19 -93 -6 -4 -7 -11 -2 -15 18 -18 36 33 36 104 l0 73 30 0 c20 0 30 5
30 15 0 17 -16 20 -26 4z"/>
<path d="M8980 1710 c0 -5 -11 -10 -24 -10 -36 0 -85 -57 -70 -81 4 -6 13 2
22 20 9 19 25 33 41 37 14 3 32 7 39 10 14 4 16 34 2 34 -5 0 -10 -4 -10 -10z"/>
<path d="M9636 1668 c-4 -29 -9 -74 -12 -100 -3 -27 -10 -48 -15 -48 -5 0 -9
-4 -9 -10 0 -17 28 -11 34 8 8 26 19 202 13 202 -3 0 -8 -24 -11 -52z"/>
<path d="M6251 1673 c1 -32 2 -34 8 -13 4 15 16 27 31 30 22 5 23 7 7 13 -38
14 -47 8 -46 -30z"/>
<path d="M6690 1691 c-5 -11 -10 -39 -9 -63 1 -47 4 -43 14 14 4 27 14 42 33
53 l27 14 -27 1 c-17 0 -31 -7 -38 -19z"/>
<path d="M6815 1685 c13 -69 -42 -154 -99 -156 -30 0 -30 -1 -8 -12 32 -15 84
14 106 59 18 39 21 101 5 124 -8 11 -9 8 -4 -15z"/>
<path d="M6910 1677 c0 -18 -3 -42 -6 -54 -4 -14 -2 -23 5 -23 6 0 11 18 11
44 0 34 4 45 18 48 14 3 13 5 -5 10 -20 5 -23 2 -23 -25z"/>
<path d="M7110 1669 c0 -24 5 -51 10 -59 6 -10 8 2 6 38 -5 66 -16 81 -16 21z"/>
<path d="M7550 1691 c-5 -11 -9 -39 -9 -63 1 -24 3 -32 6 -18 9 58 15 70 41
84 l27 15 -27 1 c-17 0 -31 -7 -38 -19z"/>
<path d="M7671 1680 c2 -71 -2 -83 -35 -116 -22 -22 -44 -34 -61 -34 -15 0
-24 -4 -20 -10 13 -20 56 -9 91 23 28 26 37 42 41 77 2 25 0 56 -6 70 -10 24
-11 24 -10 -10z"/>
<path d="M8076 1694 c-9 -24 -7 -44 4 -44 6 0 10 9 10 20 0 14 7 20 23 20 18
0 19 2 7 10 -22 14 -37 12 -44 -6z"/>
<path d="M6486 1684 c-18 -17 -22 -39 -6 -29 11 7 33 45 26 45 -2 0 -12 -7
-20 -16z"/>
<path d="M6560 1683 c0 -13 -9 -32 -21 -44 -14 -14 -18 -24 -11 -31 6 -6 17 0
31 18 23 30 25 42 11 64 -8 12 -10 11 -10 -7z"/>
<path d="M7248 1675 c-3 -16 -9 -41 -12 -55 -8 -35 -71 -91 -92 -83 -12 4 -15
3 -10 -5 9 -15 28 -15 60 -1 33 15 68 90 64 138 l-3 36 -7 -30z"/>
<path d="M9211 1695 c1 -19 18 -51 18 -35 0 8 -4 22 -9 30 -5 8 -9 11 -9 5z"/>
<path d="M11960 1692 c0 -4 9 -13 19 -19 16 -10 20 -9 24 8 4 15 0 19 -19 19
-13 0 -24 -3 -24 -8z"/>
<path d="M6365 1671 c10 -33 -43 -81 -89 -81 -30 0 -36 -3 -37 -22 -1 -42 -9
-72 -21 -80 -7 -4 -9 -10 -5 -14 14 -14 36 19 39 59 2 29 8 42 18 43 8 1 25 2
38 3 48 2 95 85 61 107 -8 4 -9 0 -4 -15z"/>
<path d="M8190 1673 c0 -50 -40 -83 -100 -83 -28 0 -30 -2 -30 -39 0 -22 -7
-46 -15 -55 -10 -10 -12 -17 -4 -21 17 -11 29 7 37 55 7 42 10 45 42 47 56 5
103 62 81 100 -9 16 -10 16 -11 -4z"/>
<path d="M8490 1675 c-10 -12 -10 -15 3 -15 8 0 20 7 27 15 10 12 10 15 -3 15
-8 0 -20 -7 -27 -15z"/>
<path d="M8578 1675 c-4 -11 -14 -30 -23 -42 -10 -13 -12 -23 -6 -27 15 -9 43
39 39 66 -3 22 -4 22 -10 3z"/>
<path d="M9329 1651 c-50 -115 -63 -141 -71 -141 -4 0 -8 -4 -8 -10 0 -5 7
-10 15 -10 21 0 103 184 87 194 -4 2 -14 -13 -23 -33z"/>
<path d="M11406 1681 c5 -4 25 -11 44 -14 l35 -6 -30 14 c-34 16 -64 20 -49 6z"/>
<path d="M9096 1634 c-3 -26 -6 -62 -6 -80 0 -19 -4 -34 -10 -34 -5 0 -10 -4
-10 -10 0 -11 30 -14 31 -2 0 4 2 14 3 22 2 8 7 45 10 83 9 76 -7 95 -18 21z"/>
<path d="M11653 1668 c2 -7 0 -23 -4 -35 -13 -36 8 -80 44 -92 28 -9 170 -41
183 -41 3 0 3 9 -1 20 -7 21 9 58 34 78 14 11 9 12 -27 10 -24 -1 -46 2 -50 8
-8 12 -73 36 -79 30 -3 -2 3 -15 12 -29 15 -23 14 -25 -1 -31 -20 -8 -17 -10
-38 31 -9 17 -25 34 -36 38 -11 3 -20 11 -20 16 0 5 -5 9 -11 9 -6 0 -9 -6 -6
-12z m82 -100 l16 -33 -21 24 c-11 13 -20 27 -20 32 0 18 10 8 25 -23z"/>
<path d="M7016 1637 c-8 -41 -50 -82 -96 -92 -16 -4 -32 -11 -35 -16 -16 -24
79 4 112 33 30 28 47 72 35 94 -8 14 -10 10 -16 -19z"/>
<path d="M8349 1641 c-2 -6 -15 -13 -28 -16 -30 -5 -48 -22 -36 -32 4 -5 10
-2 12 5 3 6 18 12 33 12 32 0 43 10 31 29 -6 9 -10 10 -12 2z"/>
<path d="M8760 1629 c0 -6 -13 -8 -30 -5 -25 3 -30 1 -30 -15 0 -10 5 -19 10
-19 6 0 10 4 10 9 0 5 12 11 27 13 25 3 47 28 24 28 -6 0 -11 -5 -11 -11z"/>
<path d="M9494 1629 c-3 -6 -17 -8 -30 -5 -20 5 -24 3 -24 -15 0 -16 3 -19 13
-11 6 5 23 12 36 14 14 1 26 9 29 16 5 15 -14 16 -24 1z"/>
<path d="M12076 1629 c9 -16 -15 -29 -53 -29 -18 0 -33 -2 -33 -5 0 -2 12 -16
26 -30 14 -14 23 -32 20 -40 -6 -16 13 -19 52 -9 23 7 32 47 12 59 -6 4 -4 17
5 36 15 28 15 29 -10 29 -17 0 -24 -4 -19 -11z"/>
<path d="M2774 1603 c-11 -17 -15 -38 -11 -63 l5 -38 -27 14 c-14 8 -33 14
-41 14 -13 0 -13 1 0 10 13 9 13 10 -1 10 -20 0 -55 -33 -74 -71 -16 -30 -16
-30 4 -19 17 8 37 6 94 -10 108 -31 127 -40 132 -64 23 -100 25 -103 19 -41
-3 33 -11 66 -17 74 -8 10 -8 16 4 25 17 12 14 46 -4 46 -9 0 -9 2 -1 8 16 10
34 48 34 69 0 33 -25 55 -63 58 -29 3 -39 -1 -53 -22z m-15 -129 c2 -2 2 -7
-2 -10 -3 -3 -16 2 -29 11 l-23 17 25 -7 c14 -4 27 -9 29 -11z m36 -14 c3 -6
-1 -7 -9 -4 -18 7 -21 14 -7 14 6 0 13 -4 16 -10z"/>
<path d="M9826 1600 c8 -39 -28 -78 -74 -82 l-37 -4 29 -8 c58 -18 114 44 88
96 -11 23 -11 23 -6 -2z"/>
<path d="M7860 1588 c0 -39 -37 -70 -77 -66 -40 5 -44 -9 -6 -18 56 -14 120
49 94 94 -9 14 -10 13 -11 -10z"/>
<path d="M8477 1545 c-5 -27 -14 -53 -20 -57 -6 -4 -8 -10 -4 -14 18 -18 38
24 35 72 l-3 49 -8 -50z"/>
<path d="M3510 1569 c0 -5 5 -9 12 -9 6 0 4 -6 -6 -13 -16 -12 -16 -14 -2 -26
8 -7 21 -9 27 -5 8 4 9 3 5 -4 -4 -7 -2 -12 3 -12 6 0 11 9 11 21 0 11 -4 17
-10 14 -5 -3 -10 -1 -10 4 0 6 5 11 11 11 5 0 8 4 5 9 -8 12 -46 21 -46 10z"/>
<path d="M6460 1546 c0 -19 -7 -41 -15 -50 -19 -18 -19 -26 -1 -26 19 0 22 6
30 63 5 31 4 47 -3 47 -6 0 -11 -15 -11 -34z"/>
<path d="M8992 1555 c-7 -8 -32 -15 -55 -16 -41 -1 -42 -1 -12 -11 36 -11 85
4 85 27 0 18 -1 18 -18 0z"/>
<path d="M8374 1552 c8 -14 -17 -22 -70 -22 -25 0 -43 -3 -41 -8 3 -4 34 -5
69 -2 45 4 63 9 63 19 0 8 -6 16 -14 19 -8 3 -11 0 -7 -6z"/>
<path d="M8788 1549 c-3 -10 -36 -16 -102 -18 -11 -1 -16 -4 -13 -8 10 -10
120 -3 132 8 5 6 5 13 -2 20 -8 8 -12 7 -15 -2z"/>
<path d="M9526 1545 c-4 -11 -21 -15 -61 -15 -31 0 -54 -3 -52 -7 9 -14 125
-2 131 13 3 7 1 16 -3 19 -5 3 -11 -2 -15 -10z"/>
<path d="M6573 1515 c-8 -9 -9 -16 -3 -20 14 -8 30 3 30 21 0 18 -11 17 -27
-1z"/>
<path d="M8593 1515 c-15 -17 -3 -27 17 -15 10 6 11 12 5 19 -6 6 -14 4 -22
-4z"/>
<path d="M2865 1430 c3 -5 8 -10 11 -10 2 0 4 5 4 10 0 6 -5 10 -11 10 -5 0
-7 -4 -4 -10z"/>
<path d="M11530 1390 c8 -5 22 -10 30 -10 8 0 27 -6 42 -14 15 -8 41 -17 59
-21 19 -4 40 -12 49 -16 8 -5 43 -18 77 -28 53 -16 64 -17 74 -5 9 12 9 13 -4
8 -8 -3 -84 17 -168 45 -149 50 -189 60 -159 41z"/>
<path d="M3497 1254 c-15 -29 -23 -54 -18 -54 15 0 61 60 61 80 0 38 -17 28
-43 -26z"/>
<path d="M2610 1193 c1 -67 -3 -111 -14 -138 -14 -37 -15 -38 -16 -12 0 16 5
37 10 48 17 31 1 22 -19 -12 -10 -17 -16 -39 -14 -50 5 -17 15 -19 79 -19 l74
0 1 -42 c0 -24 1 -69 2 -100 l2 -57 -60 -3 -60 -3 -6 -50 -6 -50 -1 49 c-2 41
-4 47 -19 41 -10 -3 -30 -9 -45 -12 -15 -3 -25 -10 -22 -15 4 -5 17 -7 30 -4
25 7 28 3 24 -46 -1 -17 4 -28 12 -29 7 0 40 -2 73 -5 33 -3 78 -1 100 3 l40
9 -3 64 c-2 36 -8 66 -13 68 -5 2 -9 10 -9 18 0 8 -5 14 -11 14 -17 0 -8 159
10 169 20 13 7 37 -38 68 -22 16 -40 34 -41 41 0 11 45 18 98 13 12 -1 22 3
22 9 0 5 -18 10 -40 10 -37 0 -40 2 -42 28 0 15 -1 35 0 45 2 20 -13 23 -24 5
-6 -9 -10 -5 -14 12 -4 18 -14 26 -34 28 l-27 3 1 -98z"/>
<path d="M8225 1261 c-3 -6 -22 -11 -41 -11 -24 0 -34 -5 -34 -15 0 -8 5 -15
10 -15 6 0 10 5 10 10 0 6 13 10 29 10 28 0 49 15 38 26 -3 3 -8 1 -12 -5z"/>
<path d="M7940 1193 c0 -55 6 -54 15 5 4 26 2 42 -5 42 -5 0 -10 -21 -10 -47z"/>
<path d="M3568 1185 c4 -26 34 -49 53 -43 9 3 -41 68 -53 68 -3 0 -3 -11 0
-25z"/>
<path d="M8046 1173 c-8 -34 -38 -61 -96 -86 -21 -9 -28 -16 -17 -16 24 -1 87
32 110 57 12 13 17 31 15 49 l-4 28 -8 -32z"/>
<path d="M3688 1178 c5 -7 12 -24 15 -38 3 -18 5 -15 6 13 1 28 -3 37 -15 37
-12 0 -14 -3 -6 -12z"/>
<path d="M8200 1182 c0 -6 -13 -13 -30 -17 -17 -4 -30 -13 -30 -22 0 -13 2
-13 15 1 9 8 22 13 30 10 15 -6 33 22 21 33 -3 4 -6 1 -6 -5z"/>
<path d="M12191 1166 c-15 -18 -2 -68 17 -72 7 -1 8 0 3 2 -5 3 -4 17 2 34 14
36 -2 60 -22 36z"/>
<path d="M12155 1162 c-13 -9 -13 -89 1 -89 6 0 10 21 10 49 -1 26 -1 48 -1
48 0 0 -4 -4 -10 -8z"/>
<path d="M1080 1135 c-7 -9 -11 -17 -9 -20 3 -2 10 5 17 15 14 24 10 26 -8 5z"/>
<path d="M12040 1128 c0 -4 5 -8 10 -8 6 0 10 -6 9 -12 -5 -37 2 -58 19 -57
10 0 12 3 5 6 -7 2 -13 22 -13 42 0 27 -4 38 -15 38 -8 0 -15 -4 -15 -9z"/>
<path d="M12119 1133 c-1 -5 -1 -12 0 -17 1 -5 -1 -16 -5 -25 -5 -12 -9 -9
-14 14 l-8 30 -1 -32 c-1 -27 3 -33 19 -33 16 0 20 7 20 35 0 30 -8 49 -11 28z"/>
<path d="M12000 1105 c-10 -11 -9 -18 4 -30 14 -14 16 -14 16 -2 0 9 5 17 12
19 12 4 3 28 -11 28 -5 0 -14 -7 -21 -15z"/>
<path d="M3519 1068 c-1 -24 0 -47 1 -53 7 -34 -2 -124 -20 -191 -23 -88 -25
-120 -9 -130 29 -18 61 72 77 217 5 41 14 72 25 83 11 12 17 33 17 67 l0 49
-45 0 -45 0 -1 -42z"/>
<path d="M3706 1088 c19 -60 31 -117 26 -122 -3 -3 -24 -7 -46 -8 -41 -1 -41
-1 9 -7 28 -4 53 -5 57 -4 9 4 -34 163 -45 163 -4 0 -5 -10 -1 -22z"/>
<path d="M8220 1090 c0 -5 -25 -10 -55 -10 -31 0 -55 -4 -55 -10 0 -6 16 -9
38 -6 20 3 49 5 65 5 17 1 27 6 27 16 0 8 -4 15 -10 15 -5 0 -10 -4 -10 -10z"/>
<path d="M11960 1030 c0 -5 5 -10 11 -10 5 0 7 5 4 10 -3 6 -8 10 -11 10 -2 0
-4 -4 -4 -10z"/>
<path d="M11995 1030 c-3 -6 1 -7 9 -4 18 7 21 14 7 14 -6 0 -13 -4 -16 -10z"/>
<path d="M2755 968 c-3 -18 -1 -46 4 -63 8 -26 9 -22 10 33 1 68 -5 81 -14 30z"/>
<path d="M2595 960 c3 -5 1 -10 -4 -10 -6 0 -11 -4 -11 -10 0 -5 25 -10 56
-10 47 0 55 3 50 16 -3 9 -6 18 -6 20 0 2 -21 4 -46 4 -27 0 -43 -4 -39 -10z"/>
<path d="M2890 951 l-35 -6 -4 -72 -3 -73 42 0 c50 0 79 22 59 46 -10 12 -10
20 -1 35 8 13 9 19 1 19 -6 0 -9 12 -7 27 3 30 -3 32 -52 24z"/>
<path d="M3348 935 c-4 -17 -1 -25 8 -25 8 0 14 11 14 25 0 14 -4 25 -9 25 -5
0 -11 -11 -13 -25z"/>
<path d="M2440 940 c0 -5 5 -10 10 -10 6 0 10 5 10 10 0 6 -4 10 -10 10 -5 0
-10 -4 -10 -10z"/>
<path d="M2484 938 c-3 -4 -1 -8 5 -8 6 0 0 -10 -12 -23 -15 -16 -27 -21 -39
-15 -9 4 -27 8 -39 8 -16 0 -20 5 -16 20 3 11 1 18 -4 14 -5 -3 -9 -11 -9 -19
0 -21 -19 -28 -35 -15 -11 9 -15 9 -15 1 0 -6 -13 -11 -28 -11 -29 0 -69 -33
-72 -60 -6 -38 2 -62 31 -95 40 -45 66 -47 66 -4 0 17 6 35 14 40 10 6 10 9 2
9 -7 0 -13 7 -13 15 0 8 5 15 12 15 6 0 3 6 -7 14 -18 13 -17 14 8 14 20 0 27
-6 27 -20 0 -14 6 -18 20 -16 10 2 19 -1 20 -7 0 -5 -4 -11 -10 -11 -5 -1 -14
-2 -20 -3 -5 0 -10 -5 -10 -11 0 -5 13 -7 30 -3 28 5 30 4 30 -26 0 -21 5 -31
15 -31 10 0 15 10 15 30 0 22 5 30 18 31 10 0 12 3 5 6 -15 6 -17 33 -3 33 5
0 7 6 4 13 -3 8 5 13 22 15 14 1 30 4 34 7 15 9 22 63 11 84 -11 19 -47 25
-57 9z m-224 -123 c0 -8 -4 -15 -10 -15 -5 0 -10 7 -10 15 0 8 5 15 10 15 6 0
10 -7 10 -15z"/>
<path d="M3355 856 c6 -40 5 -46 -10 -46 -14 0 -16 -5 -10 -27 8 -34 11 -37
24 -28 14 8 14 132 0 140 -7 5 -8 -7 -4 -39z"/>
<path d="M8610 867 c0 -10 -6 -17 -12 -16 -37 5 -58 -2 -57 -18 0 -11 3 -13 6
-5 2 6 20 12 38 12 37 0 54 15 36 33 -8 8 -11 6 -11 -6z"/>
<path d="M7226 854 c-25 -24 -19 -36 9 -18 25 16 33 34 16 34 -5 0 -17 -7 -25
-16z"/>
<path d="M6656 851 c-3 -4 -19 -11 -35 -14 -26 -5 -61 -47 -61 -72 0 -16 19
-1 24 20 5 18 17 27 46 35 24 6 40 17 40 25 0 17 -6 19 -14 6z"/>
<path d="M8168 840 c-4 -14 -8 -52 -8 -85 0 -40 -6 -69 -16 -84 -16 -22 -15
-23 2 -19 16 3 20 16 27 83 4 44 6 91 5 105 l-3 25 -7 -25z"/>
<path d="M8901 803 c-2 -72 -11 -124 -24 -140 -6 -9 -6 -13 1 -13 5 0 14 6 19
13 12 15 25 197 14 197 -4 0 -9 -26 -10 -57z"/>
<path d="M9285 850 c-3 -5 -16 -10 -29 -10 -22 0 -23 -4 -25 -72 -1 -54 -6
-76 -18 -85 -9 -7 -14 -16 -10 -19 4 -4 13 -1 22 6 10 8 15 31 15 70 0 74 6
90 36 90 15 0 24 6 24 15 0 17 -6 19 -15 5z"/>
<path d="M6770 831 c-5 -11 -9 -37 -9 -58 l1 -38 8 39 c4 22 18 48 30 58 22
18 22 18 1 18 -11 0 -25 -9 -31 -19z"/>
<path d="M7085 760 c-10 -52 -22 -101 -28 -107 -6 -9 -6 -13 2 -13 16 0 29 38
42 121 16 106 5 106 -16 -1z"/>
<path d="M7361 824 c1 -16 5 -40 9 -54 6 -18 8 -11 4 24 -4 54 -15 77 -13 30z"/>
<path d="M7850 824 c-6 -14 -9 -40 -9 -57 1 -31 2 -30 9 7 4 22 18 48 30 58
l22 18 -21 0 c-14 0 -25 -9 -31 -26z"/>
<path d="M9392 837 c-17 -21 -24 -65 -13 -84 9 -15 10 -12 11 18 0 37 15 63
40 72 10 4 8 6 -6 6 -12 1 -26 -5 -32 -12z"/>
<path d="M3575 783 c-4 -32 -11 -66 -16 -75 -8 -15 -5 -18 18 -18 l28 0 -3 75
c-2 41 -7 75 -12 75 -4 0 -11 -26 -15 -57z"/>
<path d="M6888 810 c6 -44 -32 -116 -70 -129 -17 -6 -35 -8 -41 -4 -6 3 -7 1
-3 -5 19 -31 85 -2 111 48 16 31 20 105 7 114 -5 3 -6 -8 -4 -24z"/>
<path d="M7487 793 c-8 -57 -48 -108 -90 -116 -20 -4 -19 -4 4 -6 56 -3 106
72 97 144 -3 24 -5 19 -11 -22z"/>
<path d="M7968 805 c2 -18 -3 -48 -12 -67 -18 -37 -69 -73 -89 -62 -9 5 -9 4
-1 -5 15 -17 57 -4 85 25 24 25 40 126 22 137 -5 3 -7 -9 -5 -28z"/>
<path d="M8701 793 c1 -39 2 -43 9 -23 12 36 12 70 0 70 -5 0 -10 -21 -9 -47z"/>
<path d="M2497 824 c-11 -12 3 -24 29 -24 16 0 24 5 22 13 -5 13 -40 22 -51
11z"/>
<path d="M7752 810 c0 -14 2 -19 5 -12 2 6 2 18 0 25 -3 6 -5 1 -5 -13z"/>
<path d="M9099 823 c-1 -5 0 -41 1 -81 1 -45 -3 -78 -10 -87 -10 -12 -9 -15 4
-15 14 0 16 14 16 95 0 52 -2 95 -5 95 -3 0 -5 -3 -6 -7z"/>
<path d="M8272 783 c-6 -21 -14 -62 -18 -90 -3 -29 -10 -50 -15 -47 -5 3 -9 0
-9 -5 0 -21 30 -11 34 12 14 75 26 160 23 163 -2 2 -9 -13 -15 -33z"/>
<path d="M3235 788 c12 -38 20 -39 27 -3 2 12 -3 21 -15 23 -16 3 -18 0 -12
-20z"/>
<path d="M7596 794 c-4 -9 -11 -46 -16 -82 -5 -36 -15 -69 -22 -73 -10 -7 -9
-9 4 -9 10 0 20 9 22 23 25 125 31 190 12 141z"/>
<path d="M7681 792 c-6 -12 -11 -28 -11 -36 0 -9 -8 -16 -17 -16 -13 0 -14 -3
-5 -12 15 -15 26 -4 41 41 13 39 8 53 -8 23z"/>
<path d="M8362 798 c-7 -7 -12 -19 -12 -28 0 -9 -5 -21 -12 -28 -9 -9 -9 -12
3 -12 8 0 19 17 26 37 13 42 12 48 -5 31z"/>
<path d="M8432 740 c-1 -56 -5 -77 -17 -86 -11 -8 -13 -14 -5 -19 6 -4 14 -4
17 -1 12 11 22 136 14 159 -6 15 -9 -1 -9 -53z"/>
<path d="M9506 780 c-12 -49 -34 -78 -75 -100 -39 -21 -19 -28 23 -8 30 13 69
87 64 120 -3 19 -5 17 -12 -12z"/>
<path d="M3440 791 c0 -19 12 -41 20 -36 10 6 1 45 -11 45 -5 0 -9 -4 -9 -9z"/>
<path d="M3695 790 l-50 -6 45 -5 c42 -4 45 -6 45 -34 0 -27 -4 -30 -38 -36
-57 -9 -57 -19 0 -19 l51 0 4 51 c1 28 1 52 -2 53 -3 1 -27 -1 -55 -4z"/>
<path d="M8805 778 c-8 -32 -42 -65 -92 -90 l-38 -18 34 5 c64 10 124 74 108
117 -2 7 -8 1 -12 -14z"/>
<path d="M9027 793 c-4 -3 -7 -11 -7 -17 0 -6 5 -5 12 2 6 6 9 14 7 17 -3 3
-9 2 -12 -2z"/>
<path d="M8580 782 c0 -7 -11 -12 -24 -12 -27 0 -43 -15 -27 -24 5 -4 13 -1
16 5 4 5 13 8 19 6 7 -3 19 -1 27 4 11 6 11 11 1 21 -9 9 -12 9 -12 0z"/>
<path d="M7756 743 c-3 -21 -6 -50 -6 -65 0 -14 -6 -28 -12 -31 -7 -2 -10 -8
-5 -12 14 -16 25 10 32 78 8 72 2 92 -9 30z"/>
<path d="M7281 734 c-1 -22 -40 -64 -59 -64 -6 0 -14 -4 -17 -10 -12 -19 34
-10 60 13 21 17 26 29 22 52 -2 18 -5 22 -6 9z"/>
<path d="M2970 720 c20 -13 57 -13 65 0 4 6 -11 10 -37 10 -31 0 -39 -3 -28
-10z"/>
<path d="M3070 722 c0 -12 58 -14 65 -2 4 6 -8 10 -29 10 -20 0 -36 -4 -36 -8z"/>
<path d="M3180 720 c8 -5 23 -10 33 -10 10 0 15 -4 12 -10 -4 -6 5 -10 19 -10
15 0 26 6 26 13 0 15 56 11 66 -4 9 -14 34 -10 34 5 0 10 11 14 35 13 23 -1
34 -6 30 -14 -2 -7 2 -13 10 -13 8 0 15 9 15 20 0 19 -7 20 -147 20 -99 0
-143 -3 -133 -10z"/>
<path d="M9019 713 c-21 -5 -52 -73 -33 -73 8 0 14 11 14 26 0 17 6 28 20 31
11 3 20 9 20 14 0 5 -1 8 -2 8 -2 -1 -10 -3 -19 -6z"/>
<path d="M2885 700 c-27 -7 -25 -8 18 -9 30 -1 46 3 42 9 -7 11 -16 11 -60 0z"/>
<path d="M6665 700 c-3 -5 -25 -10 -48 -10 -33 -1 -38 -3 -25 -11 24 -13 88
-1 88 17 0 16 -6 18 -15 4z"/>
<path d="M6977 673 c-4 -23 -13 -44 -19 -46 -8 -3 -6 -6 4 -6 19 -1 32 33 26
70 -3 18 -6 13 -11 -18z"/>
<path d="M8606 692 c-4 -7 -29 -12 -57 -12 -27 0 -49 -4 -49 -8 0 -8 110 -4
119 4 1 1 1 8 -1 15 -3 10 -6 10 -12 1z"/>
<path d="M1155 479 c-26 -57 -24 -71 14 -112 27 -30 50 -42 194 -101 102 -41
109 -42 148 -19 46 27 51 59 27 177 l-20 104 -129 1 c-128 2 -129 2 -130 -21
-2 -45 -4 -51 -16 -55 -6 -2 -19 14 -29 36 -10 23 -22 41 -26 41 -5 0 -20 -23
-33 -51z"/>
<path d="M2105 511 c-169 -47 -317 -193 -354 -349 -12 -47 -10 -93 5 -145 4
-14 17 -17 71 -17 l66 0 -22 24 c-16 17 -21 34 -20 62 2 21 1 45 -2 53 -2 9 8
20 24 28 15 8 27 19 27 24 0 6 11 27 25 47 14 20 25 44 25 54 0 9 10 20 23 24
30 9 108 62 128 87 10 12 23 18 32 14 17 -6 78 7 114 25 12 6 30 7 40 3 10 -5
41 -11 68 -14 50 -6 50 -6 53 -45 3 -34 -1 -42 -32 -68 -20 -16 -36 -36 -36
-43 0 -8 -12 -15 -27 -17 -19 -2 -29 -10 -33 -28 -5 -22 -11 -25 -42 -22 -23
2 -40 -3 -48 -13 -7 -9 -28 -22 -47 -30 -19 -8 -37 -25 -43 -40 -7 -18 -17
-25 -35 -25 -37 0 -134 -67 -135 -92 0 -15 68 -8 74 7 3 8 17 15 32 15 30 0
92 34 112 62 7 10 22 18 33 18 14 0 19 7 19 25 0 17 6 25 18 26 9 1 26 2 37 3
11 0 21 11 25 26 4 17 12 24 24 22 21 -4 63 21 91 53 21 25 88 37 113 21 14
-9 16 -92 2 -101 -5 -3 -10 -21 -10 -39 0 -25 -7 -38 -25 -50 -14 -9 -24 -24
-23 -32 2 -8 -8 -20 -21 -27 -49 -25 -37 -37 37 -37 l69 0 32 81 c18 45 41
126 51 180 10 53 29 121 41 149 22 51 22 53 5 85 l-18 34 -242 -1 c-193 0
-253 -4 -301 -17z"/>
<path d="M8003 485 c-108 -123 -123 -309 -36 -443 24 -37 32 -42 63 -42 l36 0
-41 45 c-23 24 -42 50 -43 57 0 7 -6 33 -12 57 -28 112 41 280 140 342 l45 29
-59 -2 c-54 -2 -60 -5 -93 -43z"/>
<path d="M8553 470 c31 -33 70 -89 88 -125 29 -60 31 -70 27 -142 -5 -77 -28
-142 -66 -185 -14 -17 -12 -18 24 -18 35 0 41 4 62 40 13 22 20 46 16 52 -4 6
-3 8 4 4 17 -10 35 97 27 157 -10 70 -48 138 -120 214 -47 48 -67 63 -89 63
-28 0 -28 0 27 -60z"/>
<path d="M11616 490 c-63 -56 -80 -164 -30 -197 48 -31 116 14 144 96 28 84 6
130 -62 131 -10 0 -33 -14 -52 -30z"/>
<path d="M8273 483 c-7 -3 -13 -13 -13 -24 0 -22 46 -37 62 -21 22 22 -15 56
-49 45z"/>
<path d="M9615 480 c-65 -7 -168 -40 -189 -60 -18 -18 22 -21 100 -10 44 6
118 17 167 24 48 7 91 16 95 20 13 14 -31 36 -67 35 -20 -1 -67 -5 -106 -9z"/>
<path d="M3127 455 c-32 -21 -38 -22 -45 -8 -21 37 -112 -51 -112 -109 0 -30
35 -78 57 -78 8 0 28 14 43 30 16 17 38 30 52 30 55 0 107 54 123 128 l7 32
-45 0 c-30 0 -55 -8 -80 -25z"/>
<path d="M8419 464 c-16 -20 0 -49 27 -49 22 0 31 30 14 50 -16 19 -24 19 -41
-1z"/>
<path d="M12427 473 c-3 -5 -8 -25 -11 -45 -5 -30 -3 -38 9 -38 9 0 15 9 15
23 0 12 3 32 6 45 6 21 -9 32 -19 15z"/>
<path d="M8172 463 c-22 -9 -35 -43 -21 -59 17 -21 43 -17 69 11 19 20 21 27
10 40 -12 15 -33 18 -58 8z"/>
<path d="M11802 454 c-67 -46 -69 -204 -3 -221 56 -14 109 59 110 152 1 75
-51 108 -107 69z"/>
<path d="M502 414 c-12 -8 -29 -29 -38 -46 l-16 -30 44 -39 c23 -21 52 -40 62
-43 29 -8 72 44 74 88 1 31 -4 39 -36 61 -43 29 -59 31 -90 9z"/>
<path d="M6720 417 c0 -16 32 -47 48 -47 16 0 15 21 -2 43 -16 20 -46 23 -46
4z"/>
<path d="M8484 407 c-9 -24 14 -69 34 -65 21 4 28 44 12 64 -15 18 -39 18 -46
1z"/>
<path d="M8242 398 c-14 -14 -16 -44 -3 -52 15 -10 55 29 48 47 -7 20 -28 22
-45 5z"/>
<path d="M8087 382 c-20 -22 -23 -62 -4 -62 25 0 58 32 55 53 -4 28 -30 33
-51 9z"/>
<path d="M8305 376 c-17 -26 -15 -56 4 -56 18 0 42 33 39 53 -4 30 -24 32 -43
3z"/>
<path d="M8420 380 c-24 -24 -26 -58 -5 -66 23 -9 45 15 45 47 0 37 -15 44
-40 19z"/>
<path d="M13013 364 c-7 -3 -13 -20 -13 -38 0 -30 3 -33 24 -29 14 3 34 14 45
24 16 15 21 16 21 6 0 -19 -43 -47 -71 -47 -17 0 -20 -4 -15 -22 3 -13 6 -38
6 -55 0 -35 16 -44 27 -17 3 9 0 20 -8 25 -11 8 -10 9 5 7 13 -2 34 16 68 59
46 59 48 62 29 73 -24 12 -101 22 -118 14z"/>
<path d="M8152 338 c-18 -18 -15 -48 6 -48 23 0 42 19 42 42 0 21 -30 24 -48
6z"/>
<path d="M9735 339 c-16 -5 -70 -11 -120 -13 -49 -1 -119 -11 -155 -21 l-64
-19 45 -12 c56 -14 106 -49 127 -89 9 -16 18 -64 21 -105 l6 -75 37 -3 c36 -3
36 -3 52 51 9 31 16 63 16 74 0 10 13 45 29 78 26 57 52 86 111 127 25 17 25
17 -25 17 -27 -1 -63 -5 -80 -10z"/>
<path d="M12412 271 c5 -81 9 -97 25 -88 14 9 0 160 -16 165 -11 4 -13 -10 -9
-77z"/>
<path d="M6848 333 c-13 -3 -18 -14 -18 -37 0 -18 -9 -45 -20 -59 l-20 -25 40
-36 c24 -21 61 -42 96 -52 51 -14 63 -15 102 -3 84 26 107 104 42 135 -89 42
-121 55 -129 50 -5 -4 -24 2 -43 12 -18 11 -41 17 -50 15z"/>
<path d="M668 313 c-30 -19 -58 -62 -58 -91 0 -23 93 -88 110 -77 6 3 8 11 5
16 -3 5 0 7 7 4 14 -5 48 54 48 85 0 16 -36 51 -75 73 -6 3 -22 -2 -37 -10z"/>
<path d="M8219 302 c-14 -12 -20 -25 -16 -35 8 -22 29 -21 58 2 20 16 21 21
10 35 -17 20 -24 20 -52 -2z"/>
<path d="M8450 290 c-14 -34 -8 -60 14 -60 22 0 49 45 41 70 -10 30 -41 25
-55 -10z"/>
<path d="M5269 198 c-60 -62 -109 -116 -109 -120 0 -20 57 -19 114 2 126 46
233 82 299 99 68 17 68 18 44 34 -30 20 -138 66 -196 83 l-44 14 -108 -112z"/>
<path d="M8057 303 c-4 -3 -7 -19 -7 -35 0 -25 4 -29 23 -26 14 2 23 11 25 27
4 29 -24 52 -41 34z"/>
<path d="M8372 291 c-8 -5 -12 -22 -10 -42 2 -26 8 -34 23 -34 26 0 44 47 25
69 -14 18 -20 19 -38 7z"/>
<path d="M8543 293 c-18 -6 -17 -70 1 -76 18 -7 36 12 36 39 0 25 -19 43 -37
37z"/>
<path d="M8116 254 c-8 -20 10 -54 29 -54 26 0 46 29 35 51 -13 23 -55 25 -64
3z"/>
<path d="M6601 234 c-12 -15 -24 -38 -28 -52 -7 -31 12 -97 43 -144 l24 -38
84 0 c59 0 86 4 89 13 5 16 -12 67 -24 67 -5 0 -9 11 -9 25 0 14 -11 37 -25
51 -14 14 -25 31 -25 37 0 11 -24 26 -101 65 -4 1 -16 -9 -28 -24z"/>
<path d="M10180 225 c-14 -8 -40 -14 -58 -15 -42 0 -92 -26 -92 -46 0 -12 6
-15 23 -9 12 3 51 13 86 21 74 17 116 35 114 49 -4 16 -46 16 -73 0z"/>
<path d="M5907 209 c-49 -75 -63 -200 -24 -207 15 -3 17 1 10 25 -12 45 -8 75
20 133 27 56 22 93 -6 49z"/>
<path d="M786 185 c-26 -28 -37 -58 -27 -72 3 -5 25 -17 47 -26 33 -12 45 -13
57 -4 28 21 36 60 21 95 -11 26 -19 32 -44 32 -20 0 -39 -9 -54 -25z"/>
<path d="M8409 194 c-27 -33 23 -96 53 -66 15 15 1 60 -21 72 -14 7 -22 6 -32
-6z"/>
<path d="M8485 180 c-9 -27 3 -60 21 -60 17 0 33 37 26 62 -6 24 -39 23 -47
-2z"/>
<path d="M8034 167 c-8 -21 13 -57 32 -57 23 0 15 64 -9 68 -9 2 -20 -3 -23
-11z"/>
<path d="M8216 164 c-13 -12 -14 -19 -5 -30 14 -18 53 -18 67 -1 24 29 -35 59
-62 31z"/>
<path d="M8560 155 c-12 -31 -2 -58 17 -51 8 3 17 6 19 6 2 0 4 16 4 35 0 42
-25 48 -40 10z"/>
<path d="M8103 154 c-4 -11 1 -22 12 -30 22 -16 34 -17 55 -4 12 7 12 13 4 27
-15 25 -62 29 -71 7z"/>
<path d="M6056 144 c-23 -23 -17 -69 9 -69 28 0 45 50 23 71 -14 14 -17 14
-32 -2z"/>
<path d="M7595 140 c-10 -11 -24 -20 -31 -20 -20 0 -62 -21 -68 -34 -2 -6 -11
-28 -20 -48 l-16 -38 140 0 c99 0 140 3 140 12 0 6 -18 28 -40 48 -22 20 -40
44 -40 53 0 16 -26 47 -39 47 -4 0 -16 -9 -26 -20z"/>
<path d="M9228 143 c-9 -2 -23 -18 -31 -35 -38 -79 60 -147 119 -82 37 39 32
74 -16 107 -24 17 -39 19 -72 10z"/>
<path d="M10207 120 c-33 -17 -73 -30 -95 -30 -20 0 -54 -6 -74 -13 l-37 -13
36 -32 c32 -29 42 -32 98 -32 l62 0 6 37 c4 23 20 50 44 75 45 46 37 47 -40 8z"/>
<path d="M8307 133 c-11 -10 -8 -20 9 -37 22 -23 54 -21 54 4 0 27 -46 51 -63
33z"/>
<path d="M8976 117 c-28 -28 -35 -84 -14 -105 7 -7 36 -12 66 -12 62 0 81 15
82 66 0 43 -20 65 -67 71 -35 5 -45 2 -67 -20z"/>
<path d="M912 108 c-5 -7 -13 -23 -16 -35 -6 -19 -2 -25 19 -33 15 -6 31 -7
37 -4 7 5 8 2 3 -5 -5 -9 0 -12 16 -9 33 4 37 43 8 74 -25 26 -51 31 -67 12z"/>
<path d="M8165 93 c-12 -12 -13 -18 -4 -29 16 -19 68 -18 76 2 12 32 -46 54
-72 27z"/>
<path d="M11520 89 c-9 -16 -8 -26 5 -45 26 -40 64 -11 51 39 -8 33 -40 36
-56 6z"/>
<path d="M5584 90 c-30 -12 -37 -25 -20 -39 18 -15 66 -4 73 16 3 8 0 19 -8
24 -17 10 -18 10 -45 -1z"/>
<path d="M5716 84 c-21 -21 -12 -34 24 -34 34 0 47 15 30 35 -16 19 -35 19
-54 -1z"/>
<path d="M8516 84 c-12 -31 -6 -54 14 -54 22 0 44 34 36 56 -7 19 -42 18 -50
-2z"/>
<path d="M11623 83 c-4 -10 2 -23 16 -35 28 -22 45 -23 60 -4 10 12 8 19 -8
35 -25 25 -59 27 -68 4z"/>
<path d="M8082 69 c2 -12 12 -28 24 -36 18 -11 23 -11 32 0 15 18 -12 57 -39
57 -15 0 -20 -6 -17 -21z"/>
<path d="M8447 84 c-12 -12 -8 -61 7 -73 19 -16 38 10 34 46 -3 27 -26 42 -41
27z"/>
<path d="M8269 54 c-11 -14 -10 -18 6 -30 24 -18 44 -15 59 9 20 32 -39 52
-65 21z"/>
<path d="M11730 50 c0 -21 27 -40 59 -40 14 0 21 6 21 18 0 26 -20 42 -52 42
-21 0 -28 -5 -28 -20z"/>
<path d="M5423 48 c-13 -6 -23 -19 -23 -30 0 -23 47 -25 76 -3 19 15 19 15 0
30 -23 17 -23 17 -53 3z"/>
<path d="M1329 14 c-24 -13 -23 -13 14 -14 20 0 37 4 37 9 0 16 -26 19 -51 5z"/>
<path d="M8187 23 c-15 -15 -5 -23 29 -23 31 0 35 2 24 15 -13 16 -42 20 -53
8z"/>
<path d="M3805 10 c-30 -8 -30 -8 8 -9 20 0 37 4 37 9 0 11 -2 11 -45 0z"/>
<path d="M5205 10 c-4 -6 7 -10 25 -10 18 0 29 4 25 10 -3 6 -15 10 -25 10
-10 0 -22 -4 -25 -10z"/>
<path d="M5585 10 c-4 -6 8 -10 30 -10 22 0 34 4 30 10 -8 13 -52 13 -60 0z"/>
<path d="M7068 3 c7 -3 16 -2 19 1 4 3 -2 6 -13 5 -11 0 -14 -3 -6 -6z"/>
<path d="M11598 3 c7 -3 16 -2 19 1 4 3 -2 6 -13 5 -11 0 -14 -3 -6 -6z"/>
<path d="M11848 3 c7 -3 16 -2 19 1 4 3 -2 6 -13 5 -11 0 -14 -3 -6 -6z"/>
</g>
</svg>
