<?xml version="1.0" standalone="no"?>
<!DOCTYPE svg PUBLIC "-//W3C//DTD SVG 20010904//EN"
 "http://www.w3.org/TR/2001/REC-SVG-20010904/DTD/svg10.dtd">
<svg version="1.0" xmlns="http://www.w3.org/2000/svg"
 width="1600.000000pt" height="218.000000pt" viewBox="0 0 1600.000000 218.000000"
 preserveAspectRatio="xMidYMid meet">

<g transform="translate(0.000000,218.000000) scale(0.100000,-0.100000)"
fill="#000000" stroke="none">
<path d="M678 2172 c-3 -8 -83 -83 -228 -216 -36 -32 -152 -133 -257 -224
-157 -134 -193 -170 -193 -190 l0 -26 20 22 c12 12 24 22 28 22 4 0 26 17 49
38 64 57 125 108 127 102 0 -2 23 19 50 47 26 29 57 55 67 58 11 4 17 11 14
16 -4 5 2 12 12 16 10 4 34 23 53 42 20 20 57 52 83 71 25 19 47 41 47 48 0 6
4 12 8 12 15 0 112 92 106 101 -3 5 3 6 12 2 13 -5 16 -3 11 10 -4 10 -2 14 6
12 7 -3 20 7 30 20 l18 25 -30 0 c-16 0 -31 -4 -33 -8z"/>
<path d="M1330 2085 c-350 -513 -596 -1003 -774 -1540 -41 -123 -42 -135 -20
-135 10 0 14 6 10 15 -3 8 -1 15 5 15 6 0 7 5 4 10 -4 6 -2 17 5 24 6 8 15 27
20 43 5 15 25 73 45 128 20 55 39 114 42 130 3 17 12 35 20 42 9 7 13 21 10
33 -3 13 -1 18 6 13 6 -4 8 2 5 15 -4 12 -3 20 2 17 7 -4 70 134 70 155 0 5 4
10 9 10 9 0 25 54 24 78 -1 7 1 11 4 8 9 -9 29 18 37 47 3 15 11 25 16 22 5
-3 8 0 5 7 -6 16 40 109 50 100 4 -4 5 2 3 14 -3 23 20 74 39 87 7 4 13 13 13
18 0 6 7 17 16 26 8 9 13 21 10 29 -3 7 -1 14 3 16 4 2 22 30 41 63 18 33 37
62 41 65 4 3 21 34 38 69 17 36 35 67 39 70 18 13 62 87 62 106 0 17 2 17 10
5 8 -12 10 -11 10 7 0 12 4 23 8 25 4 2 34 41 66 88 33 47 62 87 65 90 4 3 17
22 29 43 l21 37 -22 0 c-17 0 -38 -23 -87 -95z"/>
<path d="M1844 2058 c-164 -167 -384 -421 -384 -443 0 -5 13 6 28 25 63 80
364 409 488 533 4 4 3 7 -2 7 -6 0 -64 -55 -130 -122z"/>
<path d="M14516 2143 c-13 -69 -49 -206 -71 -267 -13 -34 -28 -77 -35 -96 -7
-19 -21 -52 -31 -72 -10 -20 -19 -41 -19 -45 1 -11 39 40 40 51 0 5 14 41 31
80 55 124 74 183 99 304 13 63 15 82 5 82 -7 0 -16 -17 -19 -37z"/>
<path d="M9266 2025 c-4 -11 -16 -16 -38 -15 -48 3 -62 1 -54 -7 3 -4 26 -8
51 -9 47 -2 77 18 58 37 -7 7 -12 5 -17 -6z"/>
<path d="M7250 2000 c-1 -14 -3 -42 -6 -62 -3 -22 -1 -38 4 -38 12 0 20 97 10
113 -5 7 -8 2 -8 -13z"/>
<path d="M8720 2011 c0 -7 -10 -21 -22 -32 -13 -10 -18 -18 -12 -19 7 0 22 9
35 19 19 16 22 22 12 32 -11 11 -13 11 -13 0z"/>
<path d="M7910 1999 c0 -7 -14 -10 -35 -7 -24 3 -36 -1 -40 -10 -8 -20 3 -28
17 -14 7 7 27 12 45 12 23 0 33 5 33 15 0 8 -4 15 -10 15 -5 0 -10 -5 -10 -11z"/>
<path d="M7147 1898 c5 -95 3 -108 -12 -114 -13 -5 -14 -9 -4 -15 7 -4 17 -5
21 -3 11 7 9 148 -2 199 -6 27 -7 6 -3 -67z"/>
<path d="M7443 1962 c-6 -97 -15 -157 -24 -168 -7 -8 -7 -14 0 -18 6 -4 14 1
19 11 13 24 26 213 15 213 -4 0 -9 -17 -10 -38z"/>
<path d="M8340 1993 c0 -7 -12 -13 -27 -15 -27 -3 -28 -4 -31 -78 -2 -56 -7
-78 -19 -87 -19 -15 -11 -28 12 -20 10 4 15 20 16 49 0 24 3 61 7 83 6 33 11
40 29 37 25 -4 40 15 24 31 -8 8 -11 8 -11 0z"/>
<path d="M8450 1975 c-15 -18 -20 -62 -12 -95 6 -20 8 -15 12 25 4 40 10 52
28 60 12 5 22 13 22 17 0 14 -37 9 -50 -7z"/>
<path d="M9087 1975 c-3 -11 -9 -42 -12 -70 -10 -77 -25 -125 -37 -125 -9 0
-9 -3 -1 -11 21 -21 31 0 48 95 16 90 18 159 2 111z"/>
<path d="M9374 1953 c-12 -28 -13 -44 -6 -67 10 -31 10 -31 11 12 1 43 32 89
51 77 6 -4 10 -1 10 4 0 6 -11 11 -26 11 -19 0 -28 -8 -40 -37z"/>
<path d="M8136 1953 c-3 -16 -11 -56 -17 -91 -7 -35 -18 -70 -26 -77 -9 -10
-10 -16 -2 -20 18 -12 27 6 43 90 9 44 18 90 21 103 3 12 1 22 -4 22 -5 0 -12
-12 -15 -27z"/>
<path d="M8205 1970 c4 -6 11 -8 16 -5 14 9 11 15 -7 15 -8 0 -12 -5 -9 -10z"/>
<path d="M8568 1940 c7 -71 -57 -151 -109 -137 -10 3 -17 1 -13 -4 13 -22 66
-9 100 25 30 30 34 40 34 89 0 31 -3 58 -8 61 -4 2 -6 -13 -4 -34z"/>
<path d="M9502 1950 c2 -84 -27 -129 -94 -149 -33 -9 -33 -9 -5 -10 82 -3 141
93 107 174 -7 16 -8 13 -8 -15z"/>
<path d="M7725 1876 c0 -56 -5 -88 -14 -99 -11 -15 -11 -17 2 -17 8 0 18 7 21
16 8 22 7 157 -2 170 -4 7 -7 -25 -7 -70z"/>
<path d="M7067 1928 c-4 -12 -4 -24 -1 -27 6 -7 24 20 24 37 0 21 -17 13 -23
-10z"/>
<path d="M7551 1893 c-6 -31 -11 -69 -11 -84 0 -15 -7 -32 -16 -37 -11 -6 -13
-11 -5 -16 20 -13 28 2 34 62 4 32 13 74 22 95 13 31 13 37 2 37 -9 0 -18 -21
-26 -57z"/>
<path d="M7652 1937 c-6 -6 -13 -24 -17 -40 -4 -15 -12 -27 -18 -27 -8 0 -8
-3 0 -11 14 -14 33 -3 33 20 0 9 7 26 15 37 8 10 15 22 15 27 0 11 -17 8 -28
-6z"/>
<path d="M9270 1875 c0 -43 -5 -76 -12 -84 -11 -10 -9 -12 6 -9 17 3 20 12 21
70 1 37 -2 73 -6 80 -5 8 -9 -16 -9 -57z"/>
<path d="M9180 1920 c0 -5 6 -10 14 -10 8 0 18 5 21 10 3 6 -3 10 -14 10 -12
0 -21 -4 -21 -10z"/>
<path d="M7885 1910 c-3 -5 -19 -10 -36 -10 -22 0 -29 -5 -29 -20 0 -23 15
-27 24 -5 3 8 17 15 31 15 16 0 25 6 25 15 0 17 -6 19 -15 5z"/>
<path d="M2715 1890 c3 -5 12 -10 20 -10 8 0 17 5 20 10 4 6 -5 10 -20 10 -15
0 -24 -4 -20 -10z"/>
<path d="M2972 1870 c-6 -11 -12 -22 -12 -25 0 -11 20 6 30 26 14 25 -2 25
-18 -1z"/>
<path d="M8757 1850 c-7 -33 -57 -65 -88 -57 -11 3 -17 1 -13 -4 3 -5 21 -9
40 -9 43 0 74 29 74 70 0 38 -6 38 -13 0z"/>
<path d="M7335 1860 c-3 -5 -16 -10 -28 -11 -12 0 -40 -7 -62 -14 l-40 -14 60
5 c78 7 95 12 95 30 0 16 -16 19 -25 4z"/>
<path d="M8967 1843 c-3 -10 -8 -33 -12 -50 -4 -18 -12 -33 -18 -33 -8 0 -8
-3 0 -11 19 -19 31 -2 38 52 7 50 2 77 -8 42z"/>
<path d="M9188 1853 c7 -3 16 -2 19 1 4 3 -2 6 -13 5 -11 0 -14 -3 -6 -6z"/>
<path d="M7040 1836 c-6 -6 -10 -20 -10 -33 0 -13 -5 -23 -12 -23 -9 0 -9 -3
-1 -11 17 -17 33 -1 33 32 0 22 5 29 20 29 11 0 20 4 20 9 0 12 -37 10 -50 -3z"/>
<path d="M8018 1840 c-4 -8 -8 -26 -11 -40 -2 -14 -8 -33 -12 -42 -4 -11 -3
-18 4 -18 16 0 33 48 29 84 -3 20 -6 26 -10 16z"/>
<path d="M2978 1833 c-10 -2 -18 -11 -18 -19 0 -8 -18 -49 -40 -90 -42 -79
-53 -114 -22 -73 19 26 57 102 67 134 4 14 8 16 14 7 6 -9 12 -7 26 8 17 18
17 20 2 14 -13 -5 -16 -2 -11 10 3 9 5 15 3 15 -2 -1 -12 -3 -21 -6z"/>
<path d="M3335 1820 c-3 -5 -2 -10 4 -10 5 0 13 5 16 10 3 6 2 10 -4 10 -5 0
-13 -4 -16 -10z"/>
<path d="M7910 1820 c0 -6 -27 -10 -61 -10 -37 0 -58 -4 -54 -10 13 -21 135
-7 135 16 0 8 -4 14 -10 14 -5 0 -10 -4 -10 -10z"/>
<path d="M3075 1810 c-3 -5 -1 -10 4 -10 6 0 11 5 11 10 0 6 -2 10 -4 10 -3 0
-8 -4 -11 -10z"/>
<path d="M3170 1798 c0 -10 11 -19 31 -23 38 -9 50 0 12 10 -15 3 -31 12 -35
18 -5 8 -8 6 -8 -5z"/>
<path d="M9195 1792 c-26 -4 -27 -5 -10 -12 23 -8 55 -2 55 11 0 5 -3 8 -7 8
-5 -1 -21 -4 -38 -7z"/>
<path d="M3266 1763 c-11 -11 -6 -23 8 -23 8 0 17 4 20 9 7 10 -19 23 -28 14z"/>
<path d="M3185 1730 c-3 -5 -4 -14 -1 -19 4 -5 0 -12 -6 -14 -10 -4 -10 -6 0
-6 17 -1 15 -21 -5 -44 -17 -19 -17 -20 5 -15 12 4 20 3 17 -2 -3 -4 2 -11 11
-14 22 -9 23 -8 18 17 -2 12 -2 16 2 10 7 -16 24 -17 24 -2 0 7 6 17 14 23 8
6 17 21 20 32 6 18 2 22 -24 26 -29 4 -35 -1 -30 -31 1 -9 -4 -12 -15 -7 -9 3
-18 6 -20 6 -2 0 -2 11 1 25 5 26 0 32 -11 15z"/>
<path d="M3125 1690 c-26 -28 -15 -31 12 -3 12 13 19 23 14 23 -4 0 -16 -9
-26 -20z"/>
<path d="M3838 1643 c-22 -3 -28 -10 -28 -28 0 -26 -15 -41 -25 -25 -10 16
-35 12 -29 -4 4 -10 0 -13 -13 -10 -11 3 -26 -3 -37 -15 -15 -16 -16 -21 -5
-22 8 -1 25 -2 39 -4 14 -1 39 -3 57 -3 26 -2 30 -5 26 -23 -4 -12 0 -25 8
-30 10 -6 10 -9 2 -9 -7 0 -13 -11 -13 -24 0 -19 6 -24 37 -29 20 -4 39 -4 42
-2 2 3 -3 5 -12 5 -22 0 -21 6 2 44 16 26 18 39 11 71 -5 22 -8 47 -8 55 3 37
-3 60 -14 59 -7 -1 -25 -4 -40 -6z m2 -79 c0 -16 -16 -19 -25 -4 -8 13 4 32
16 25 5 -4 9 -13 9 -21z"/>
<path d="M3414 1596 c-25 -18 -8 -24 79 -28 42 -2 77 -7 77 -12 0 -6 5 -5 12
2 17 17 -18 41 -62 42 -19 1 -47 3 -62 5 -14 2 -34 -2 -44 -9z"/>
<path d="M1429 1583 c-29 -35 -41 -53 -36 -53 2 0 17 16 31 35 28 36 31 49 5
18z"/>
<path d="M14321 1584 c0 -11 3 -14 6 -6 3 7 2 16 -1 19 -3 4 -6 -2 -5 -13z"/>
<path d="M2863 1556 c-4 -8 -23 -16 -42 -18 -46 -4 -49 -22 -9 -50 31 -22 33
-25 28 -73 -5 -47 -6 -49 -18 -27 -12 21 -15 22 -30 9 -20 -19 -45 -5 -56 30
-6 18 -2 25 19 35 26 12 26 12 5 20 -14 5 -20 14 -16 23 7 18 -9 18 -49 0
l-30 -13 26 -1 c27 -1 40 -16 32 -38 -7 -19 -20 -16 -26 7 -6 23 -16 25 -40 8
-19 -15 -30 -65 -16 -74 5 -3 6 -10 3 -16 -4 -6 0 -14 7 -19 20 -13 29 -11 29
5 0 7 10 17 23 20 21 6 21 7 4 20 -14 11 -15 15 -3 19 21 8 27 -3 20 -41 -5
-26 -3 -38 9 -47 9 -6 19 -23 22 -37 5 -21 2 -26 -16 -31 -14 -4 -30 0 -40 9
-18 16 -59 11 -59 -7 0 -5 -6 -9 -14 -9 -10 0 -12 7 -8 22 3 14 2 19 -6 14
-22 -13 -13 -43 13 -48 29 -6 188 1 195 8 2 3 -1 9 -8 13 -16 10 -5 39 16 45
10 4 18 18 19 36 6 88 6 90 25 90 15 0 17 -6 13 -37 -4 -36 -3 -37 11 -18 14
19 15 19 20 -3 7 -26 34 -29 67 -8 12 8 31 13 42 11 11 -2 23 -4 28 -4 4 -1 7
-5 7 -11 0 -5 -15 -10 -32 -11 -26 0 -29 -2 -14 -8 23 -9 64 -3 72 10 3 5 -2
12 -10 15 -24 9 -19 47 12 113 l28 58 -27 -3 c-15 -2 -32 3 -38 10 -9 10 -23
11 -59 5 -31 -6 -48 -6 -50 1 -5 15 -70 12 -79 -4z m154 -28 c-3 -8 -6 -5 -6
6 -1 11 2 17 5 13 3 -3 4 -12 1 -19z m-125 -25 c18 -21 31 -43 25 -43 -2 0
-16 14 -30 30 -15 17 -23 30 -19 30 5 0 16 -8 24 -17z m-24 -28 c-3 -3 -9 2
-12 12 -6 14 -5 15 5 6 7 -7 10 -15 7 -18z m153 -38 c-8 -8 -11 -7 -11 4 0 20
13 34 18 19 3 -7 -1 -17 -7 -23z m-207 -99 c-4 -6 -10 -5 -16 3 -7 10 -8 8 -5
-8 3 -16 0 -23 -9 -23 -9 0 -14 11 -14 31 0 16 4 28 9 25 5 -3 12 2 16 12 6
15 8 14 16 -6 5 -13 6 -28 3 -34z"/>
<path d="M3607 1549 c-10 -6 -25 -8 -33 -5 -17 6 -74 -3 -72 -13 3 -28 -4 -51
-17 -51 -8 0 -15 4 -15 9 0 4 -11 6 -24 4 -20 -4 -23 -1 -21 20 4 31 -24 46
-38 22 -6 -12 -20 -15 -45 -13 -36 3 -37 2 -40 -37 -3 -29 1 -43 14 -52 10 -7
12 -13 6 -13 -7 0 -12 -11 -12 -25 0 -14 -8 -29 -20 -35 -39 -21 -19 -30 65
-30 59 0 87 -4 90 -12 3 -7 -1 -33 -9 -58 -11 -37 -19 -47 -46 -56 -18 -6 -39
-18 -45 -28 -7 -9 -25 -17 -41 -17 -22 -1 -24 -3 -8 -6 17 -3 23 -13 27 -41 4
-39 -8 -76 -23 -67 -4 3 -6 15 -3 26 5 18 3 20 -16 14 -19 -6 -21 -3 -21 34 0
31 -4 41 -20 46 -11 3 -22 17 -25 31 -14 67 -18 79 -22 62 -3 -10 -8 -18 -11
-18 -4 0 -7 -40 -7 -89 0 -86 1 -89 25 -99 l25 -10 -27 -1 c-18 -1 -28 -7 -28
-16 0 -9 -6 -12 -15 -8 -9 3 -13 8 -11 11 13 12 -18 31 -40 26 -18 -5 -24 -2
-24 10 0 9 7 19 16 23 10 4 14 13 10 27 -3 12 -6 53 -7 91 -1 38 -5 81 -10 95
-8 27 -7 32 -14 -86 -3 -48 -10 -64 -31 -64 -8 0 -14 -4 -14 -10 0 -13 -37
-13 -45 0 -9 15 -25 12 -25 -5 0 -11 12 -15 43 -16 39 -1 40 -2 12 -9 l-30 -8
35 -2 c19 -1 27 -4 17 -7 -11 -3 -16 -11 -13 -21 3 -9 1 -24 -4 -32 -7 -12
-12 -12 -34 0 -14 7 -26 17 -26 22 0 5 4 7 9 3 5 -3 12 -1 15 4 3 5 -8 11 -25
15 -17 3 -28 10 -24 16 9 15 -23 24 -39 11 -10 -8 -15 -9 -18 -1 -5 17 -126
19 -159 3 -24 -12 -27 -18 -19 -33 11 -20 4 -50 -11 -50 -5 0 -18 5 -29 12
-18 12 -18 13 8 24 26 12 26 12 -15 13 -39 1 -43 -1 -43 -23 0 -31 10 -56 21
-56 5 0 9 7 9 15 0 21 17 19 24 -3 3 -10 21 -24 38 -31 l33 -13 -32 -11 c-40
-12 -44 -37 -6 -37 26 0 26 -1 7 -15 -10 -8 -34 -15 -51 -15 -58 0 -35 -20 25
-21 49 0 54 -2 32 -11 -14 -6 -20 -12 -13 -15 7 -2 20 0 30 6 12 6 25 6 34 0
7 -5 42 -9 76 -9 48 0 64 4 72 17 8 15 11 15 27 3 16 -14 17 -13 11 4 -7 16
-4 18 24 12 17 -3 38 -6 46 -6 8 0 11 -4 8 -10 -3 -5 1 -10 9 -10 10 0 16 9
16 25 0 18 4 23 16 18 15 -5 15 -3 3 18 -8 13 -14 33 -13 44 1 11 2 28 3 38 1
15 4 16 22 6 12 -6 34 -9 49 -7 20 3 27 1 23 -9 -3 -7 2 -13 11 -13 9 0 16 -4
16 -9 0 -5 9 -13 20 -16 11 -4 18 -10 15 -15 -3 -5 -12 -7 -19 -4 -8 3 -17 0
-22 -7 -5 -8 -2 -11 8 -7 8 4 21 2 29 -3 11 -7 8 -9 -9 -9 -14 0 -27 -9 -34
-25 -8 -18 -19 -25 -40 -25 -19 0 -28 -5 -28 -16 0 -12 -6 -15 -21 -11 -17 4
-19 3 -10 -6 15 -15 141 -23 141 -8 0 6 -6 11 -12 11 -7 0 -4 7 7 16 18 13 21
13 32 -2 14 -19 33 -11 33 14 0 10 9 25 20 35 22 19 35 22 25 7 -3 -5 3 -10
15 -10 17 0 19 -4 14 -24 -4 -18 -1 -27 14 -35 32 -17 49 -13 24 5 -15 10 -21
22 -17 34 4 12 -1 22 -12 29 -32 17 -7 22 38 7 24 -8 55 -12 69 -9 22 6 24 5
11 -10 -9 -11 -10 -17 -2 -17 6 0 11 -5 11 -11 0 -5 -4 -7 -10 -4 -5 3 -10 2
-10 -4 0 -5 10 -12 23 -14 16 -3 13 -5 -11 -6 -30 -1 -32 1 -26 24 4 15 2 25
-5 25 -19 0 -12 -49 8 -60 47 -25 141 -5 141 30 0 31 48 23 81 -14 23 -26 34
-30 77 -30 38 0 58 6 74 21 19 17 32 20 79 16 31 -3 59 -1 62 3 3 5 -17 9 -43
9 -48 0 -85 19 -65 33 29 21 37 72 12 72 -7 0 -13 12 -13 26 -2 20 1 24 15 18
37 -16 92 -16 110 0 17 16 19 15 19 -9 0 -14 -4 -25 -9 -25 -5 0 -9 -7 -9 -16
0 -9 -8 -23 -17 -30 -17 -12 -16 -13 4 -14 12 0 24 -6 27 -12 3 -7 3 -1 0 14
-5 21 -2 26 12 25 37 -4 47 45 52 268 l5 211 -28 57 c-30 61 -42 68 -69 38
-21 -23 -12 -68 15 -76 27 -9 24 -25 -5 -25 -13 0 -26 -5 -28 -11 -2 -6 -22
-15 -43 -20 -35 -7 -31 -8 24 -5 l63 2 -6 -59 c-4 -38 -2 -65 5 -73 9 -11 5
-16 -16 -24 -36 -14 -37 -13 -30 11 8 24 -8 39 -40 38 -18 0 -18 -1 3 -9 44
-18 17 -51 -33 -40 -9 2 -48 7 -66 9 -3 1 -4 35 -1 78 l5 76 -36 -27 c-19 -15
-38 -34 -41 -43 -4 -9 -14 -13 -25 -10 -12 3 -22 -1 -26 -11 -8 -22 2 -27 30
-14 20 9 25 9 25 -3 0 -9 -16 -16 -45 -21 -34 -5 -45 -10 -43 -23 2 -9 -3 -16
-9 -15 -7 1 -26 2 -41 3 -16 0 -36 7 -45 14 -16 11 -16 19 -7 65 12 54 14 55
66 52 l30 -1 -12 83 c-7 46 -10 95 -7 111 6 30 5 31 -20 16z m-91 -104 c4 -9
2 -26 -4 -38 -9 -18 -11 -19 -11 -4 -1 9 -8 17 -16 17 -7 0 -18 -8 -24 -17 -9
-17 -10 -17 -16 -1 -4 10 -12 15 -18 11 -6 -4 -8 0 -4 10 3 10 2 17 -3 17 -5
0 -11 -8 -13 -17 -3 -12 -5 -9 -6 8 -1 25 2 26 54 28 42 1 57 -2 61 -14z m56
8 c-6 -2 -9 -9 -6 -15 4 -6 0 -14 -7 -19 -19 -12 -29 -11 -29 2 0 5 4 8 9 4 5
-3 12 -1 16 5 3 5 1 10 -5 10 -6 0 -8 5 -5 10 3 6 14 10 23 9 11 0 12 -2 4 -6z
m-12 -265 c12 -8 11 -8 -3 -4 -10 3 -39 6 -63 6 -28 0 -43 4 -39 10 7 11 81 3
105 -12z m-157 -22 c6 -16 88 -36 147 -36 34 0 38 -2 35 -22 -10 -60 -12 -62
-58 -74 -25 -6 -48 -9 -51 -6 -4 3 -6 0 -6 -7 0 -8 -7 -10 -20 -6 -11 3 -27 2
-37 -3 -13 -8 -4 -12 40 -17 32 -4 59 -10 61 -14 2 -3 0 -17 -5 -29 -8 -21
-14 -24 -59 -20 -28 1 -50 0 -50 -4 0 -5 -5 -8 -11 -8 -5 0 -8 4 -4 9 3 6 0
13 -7 18 -15 9 -38 48 -38 64 0 5 8 8 18 5 34 -11 42 9 12 29 -24 16 -30 27
-30 58 0 20 6 46 12 57 15 23 43 26 51 6z m344 -37 c-2 -22 -9 -44 -16 -48
-16 -10 9 -21 49 -21 34 0 52 20 18 20 -18 1 -15 4 13 14 25 9 53 10 95 4 32
-5 69 -9 82 -9 36 -1 23 -31 -18 -42 -33 -8 -63 -6 -124 9 -20 5 -27 3 -22 -4
3 -6 2 -13 -4 -17 -5 -3 -10 0 -10 7 -1 9 -5 8 -13 -4 -7 -9 -26 -18 -42 -21
-17 -3 -6 -4 23 -4 51 2 52 1 58 -30 7 -38 -14 -66 -43 -57 -17 5 -17 5 0 -9
40 -33 12 -67 -54 -67 -73 0 -88 19 -82 103 5 64 6 67 32 67 24 1 25 1 6 12
-27 15 -35 28 -35 56 0 15 -7 26 -20 29 -11 3 -20 14 -20 24 0 14 10 19 48 22
26 2 55 4 65 5 15 2 17 -4 14 -39z m-677 7 c0 -3 -4 -8 -10 -11 -5 -3 -10 -1
-10 4 0 6 5 11 10 11 6 0 10 -2 10 -4z m-274 -71 c-1 -46 -20 -46 -21 0 0 20
4 35 11 35 6 0 10 -15 10 -35z m84 -10 c0 -2 -13 -5 -30 -7 -19 -3 -30 0 -30
7 0 7 11 10 30 7 17 -2 30 -5 30 -7z m15 -25 c3 -5 -1 -10 -10 -10 -8 0 -20
-10 -24 -22 -8 -22 -9 -22 -17 -4 -11 28 36 61 51 36z m88 -19 c-2 -6 2 -11 7
-11 6 0 23 -8 37 -17 l27 -18 -29 -5 c-34 -6 -36 -23 -3 -31 l23 -5 -22 -12
c-28 -15 -66 -15 -81 0 -14 14 -16 78 -3 78 5 0 13 9 16 21 7 20 32 21 28 0z
m337 -2 c0 -6 -7 -17 -15 -25 -8 -9 -15 -22 -15 -30 0 -8 7 -14 15 -14 8 0 15
-4 15 -10 0 -12 -10 -13 -30 0 -18 11 -21 70 -3 70 7 0 13 7 13 16 0 8 5 12
10 9 6 -3 10 -11 10 -16z m-210 1 c8 -5 11 -10 5 -10 -5 0 -17 5 -25 10 -8 5
-10 10 -5 10 6 0 17 -5 25 -10z m465 -12 c-1 -13 -3 -31 -4 -40 0 -10 -5 -18
-10 -18 -12 0 -20 36 -14 60 7 28 31 25 28 -2z m393 17 c-8 -8 -77 -9 -85 -2
-3 4 15 7 42 7 27 0 46 -2 43 -5z m-1115 -62 c-7 -2 -19 -2 -25 0 -7 3 -2 5
12 5 14 0 19 -2 13 -5z m47 -69 c0 -21 -34 -17 -55 6 -10 11 -26 20 -37 20
-10 0 -18 5 -18 11 0 5 4 8 9 4 5 -3 12 -1 16 4 8 14 85 -27 85 -45z m940 11
c0 -19 -4 -35 -8 -35 -4 0 -6 16 -4 35 2 19 6 35 8 35 2 0 4 -16 4 -35z m-357
18 c-7 -2 -21 -2 -30 0 -10 3 -4 5 12 5 17 0 24 -2 18 -5z m-663 -59 c0 -2 -9
-4 -20 -4 -11 0 -20 4 -20 9 0 5 9 7 20 4 11 -3 20 -7 20 -9z m375 6 c3 -5 -1
-10 -10 -10 -9 0 -13 5 -10 10 3 6 8 10 10 10 2 0 7 -4 10 -10z"/>
<path d="M3785 990 c-4 -6 -13 -9 -21 -6 -8 3 -14 1 -14 -5 0 -6 15 -9 33 -7
17 2 31 7 30 13 -2 14 -20 18 -28 5z"/>
<path d="M2950 958 c0 -7 4 -19 9 -27 7 -10 10 -10 16 -1 4 7 2 16 -5 20 -10
6 -9 9 1 13 10 4 9 6 -3 6 -10 1 -18 -5 -18 -11z"/>
<path d="M8440 1526 c0 -8 -6 -16 -12 -19 -7 -2 -9 -8 -5 -13 5 -5 15 -1 23
10 16 23 18 36 4 36 -5 0 -10 -6 -10 -14z"/>
<path d="M7702 1518 c2 -8 -10 -14 -33 -16 -27 -2 -38 -9 -42 -23 -3 -10 -1
-19 4 -19 5 0 9 7 9 15 0 11 11 15 40 15 28 0 40 4 40 14 0 8 -5 18 -10 21 -6
4 -9 1 -8 -7z"/>
<path d="M2510 1510 c0 -5 5 -10 11 -10 5 0 7 5 4 10 -3 6 -8 10 -11 10 -2 0
-4 -4 -4 -10z"/>
<path d="M8120 1510 c0 -5 -18 -10 -40 -10 -35 0 -40 -3 -40 -22 1 -21 2 -21
11 -5 6 11 22 17 44 17 24 0 35 5 35 15 0 8 -2 15 -5 15 -3 0 -5 -4 -5 -10z"/>
<path d="M8855 1510 c-3 -5 -22 -10 -41 -10 -29 0 -34 -3 -34 -22 1 -21 2 -21
11 -5 6 11 22 17 44 17 24 0 35 5 35 15 0 17 -6 19 -15 5z"/>
<path d="M9097 1498 c-15 -11 -24 -24 -21 -29 3 -6 17 2 31 16 33 32 27 40
-10 13z"/>
<path d="M8307 1496 c-4 -9 -17 -16 -30 -16 -13 0 -31 -6 -40 -12 -19 -15 -37
-86 -19 -74 7 4 12 14 12 22 0 22 38 54 64 54 28 0 43 17 28 32 -6 6 -11 4
-15 -6z"/>
<path d="M8956 1464 c-3 -26 -6 -70 -6 -98 0 -29 -5 -57 -12 -64 -9 -9 -8 -12
4 -12 17 0 17 2 33 163 6 68 -9 77 -19 11z"/>
<path d="M2525 1479 c-12 -19 5 -23 22 -6 16 16 16 17 1 17 -9 0 -20 -5 -23
-11z"/>
<path d="M2615 1480 l-30 -8 27 -1 c15 0 30 4 33 9 3 6 5 9 3 9 -2 -1 -16 -5
-33 -9z"/>
<path d="M7400 1460 c0 -16 4 -30 9 -30 5 0 11 14 13 30 3 20 0 30 -9 30 -8 0
-13 -12 -13 -30z"/>
<path d="M2490 1465 c-8 -9 -8 -15 -2 -15 12 0 26 19 19 26 -2 2 -10 -2 -17
-11z"/>
<path d="M3269 1480 c-6 -31 -2 -60 8 -64 15 -6 17 32 3 54 -5 8 -10 13 -11
10z"/>
<path d="M7514 1450 c-2 -42 -47 -80 -97 -80 -21 0 -25 -6 -30 -41 -3 -23 -11
-45 -18 -50 -17 -10 -4 -23 16 -16 10 5 15 20 15 52 0 41 2 45 24 45 61 0 105
35 106 82 0 36 -15 44 -16 8z"/>
<path d="M7820 1465 c-18 -21 -3 -32 16 -13 10 9 12 18 6 22 -5 3 -15 -1 -22
-9z"/>
<path d="M7903 1467 c3 -9 -4 -26 -19 -42 -14 -15 -22 -30 -19 -34 9 -8 55 46
55 64 0 8 -5 17 -12 21 -7 5 -9 2 -5 -9z"/>
<path d="M8547 1450 c9 -53 25 -84 17 -35 -3 22 -10 47 -15 55 -5 10 -6 2 -2
-20z"/>
<path d="M8428 1435 c-4 -22 -8 -59 -8 -82 0 -29 -5 -45 -17 -53 -17 -10 -16
-10 2 -8 16 3 21 14 28 63 4 33 6 74 5 90 -3 28 -4 27 -10 -10z"/>
<path d="M8657 1438 c-50 -118 -62 -144 -71 -150 -7 -5 -5 -8 5 -8 16 0 70
104 84 163 10 37 -2 34 -18 -5z"/>
<path d="M2555 1439 c-4 -6 -13 -8 -21 -5 -14 6 -20 -9 -6 -17 4 -3 27 -8 52
-12 40 -7 43 -6 31 9 -7 9 -22 16 -33 16 -10 0 -16 5 -13 10 3 6 4 10 1 10 -3
0 -8 -5 -11 -11z"/>
<path d="M3678 1433 c-10 -3 -18 -14 -18 -26 0 -20 4 -22 40 -19 37 4 58 22
25 22 -8 0 -15 7 -15 15 0 15 -2 16 -32 8z"/>
<path d="M7675 1421 c3 -5 -9 -11 -27 -13 -22 -2 -34 -9 -36 -20 -2 -10 1 -18
7 -18 6 0 11 6 11 14 0 8 12 16 27 18 26 3 46 28 23 28 -6 0 -9 -4 -5 -9z"/>
<path d="M8090 1421 c0 -6 -14 -11 -32 -13 -21 -2 -32 -9 -34 -20 -3 -22 12
-24 20 -3 3 8 17 15 31 15 16 0 25 6 25 15 0 8 -2 15 -5 15 -3 0 -5 -4 -5 -9z"/>
<path d="M8825 1420 c-3 -5 -17 -10 -31 -10 -14 0 -27 -7 -31 -15 -8 -23 7
-33 18 -12 6 9 21 17 34 17 16 0 25 6 25 15 0 17 -6 19 -15 5z"/>
<path d="M9148 1377 c4 -37 -26 -72 -68 -80 -22 -4 -22 -4 5 -6 48 -2 75 23
75 69 0 21 -4 41 -8 44 -4 2 -6 -10 -4 -27z"/>
<path d="M3260 1390 c-9 -6 -10 -10 -3 -10 6 0 15 5 18 10 8 12 4 12 -15 0z"/>
<path d="M3660 1354 c0 -10 6 -14 14 -11 8 3 17 1 20 -6 2 -7 5 -5 5 4 1 9 -6
20 -15 23 -22 9 -24 8 -24 -10z"/>
<path d="M7807 1363 c-4 -3 -7 -23 -7 -43 0 -20 -6 -42 -12 -49 -11 -11 -10
-13 2 -9 9 3 17 23 21 54 7 52 6 58 -4 47z"/>
<path d="M2508 1340 c-7 -24 -3 -38 8 -28 3 4 4 17 2 30 l-3 23 -7 -25z"/>
<path d="M2460 1342 c0 -16 -33 -24 -42 -10 -5 8 -8 9 -8 2 0 -7 9 -22 20 -35
l19 -24 1 23 c0 13 6 22 15 22 17 0 20 16 5 25 -5 3 -10 2 -10 -3z"/>
<path d="M8310 1333 c-14 -7 -37 -12 -52 -10 -15 2 -25 0 -22 -5 9 -14 81 -9
94 7 18 21 10 24 -20 8z"/>
<path d="M2975 1330 c-4 -6 -4 -14 -1 -17 3 -4 -1 -14 -9 -23 -19 -21 -6 -63
22 -75 16 -7 15 -8 -6 -14 -33 -9 -39 -31 -9 -31 33 0 48 32 51 105 2 55 0 60
-20 63 -11 2 -24 -2 -28 -8z"/>
<path d="M3875 1330 c3 -5 15 -10 25 -10 10 0 22 5 25 10 4 6 -7 10 -25 10
-18 0 -29 -4 -25 -10z"/>
<path d="M7698 1331 c-1 -6 -27 -11 -55 -12 -29 -2 -53 -7 -53 -12 0 -6 16 -7
38 -3 20 3 49 6 65 6 17 0 27 5 27 15 0 16 -16 21 -22 6z"/>
<path d="M8110 1325 c-10 -12 -10 -15 4 -15 9 0 16 7 16 15 0 8 -2 15 -4 15
-2 0 -9 -7 -16 -15z"/>
<path d="M8850 1331 c0 -5 -10 -12 -22 -14 -17 -3 -14 -5 10 -6 22 -1 32 3 32
14 0 8 -4 15 -10 15 -5 0 -10 -4 -10 -9z"/>
<path d="M8015 1310 c-18 -8 -18 -9 5 -8 14 0 36 4 50 8 24 8 24 8 -5 8 -16 0
-39 -3 -50 -8z"/>
<path d="M8740 1308 c0 -11 47 -10 55 1 3 5 -8 9 -25 9 -16 -1 -30 -5 -30 -10z"/>
<path d="M2830 1290 c0 -11 7 -16 22 -15 31 2 34 22 3 27 -19 4 -25 1 -25 -12z"/>
<path d="M2915 1301 c-3 -5 -1 -12 5 -16 5 -3 10 1 10 9 0 18 -6 21 -15 7z"/>
<path d="M7920 1295 c-8 -9 -8 -15 -2 -15 12 0 26 19 19 26 -2 2 -10 -2 -17
-11z"/>
<path d="M3930 1270 c0 -5 5 -10 10 -10 6 0 10 5 10 10 0 6 -4 10 -10 10 -5 0
-10 -4 -10 -10z"/>
<path d="M3860 1239 c0 -5 5 -7 10 -4 6 3 10 8 10 11 0 2 -4 4 -10 4 -5 0 -10
-5 -10 -11z"/>
<path d="M2432 1130 c-13 -6 -20 -15 -17 -20 5 -8 11 -7 21 1 8 6 23 9 35 6
13 -3 19 -1 16 6 -5 16 -27 18 -55 7z"/>
<path d="M2545 1123 c-11 -3 -24 -10 -30 -15 -7 -7 -1 -8 18 -4 19 4 26 3 22
-4 -3 -5 -15 -10 -26 -10 -10 0 -19 -4 -19 -10 0 -9 -65 -4 -82 7 -6 3 -6 -37
1 -67 0 -3 12 -7 27 -8 15 -1 23 2 19 8 -4 6 -11 8 -16 5 -5 -4 -9 -1 -9 4 0
6 7 11 16 11 8 0 13 4 9 9 -3 5 -1 13 5 16 6 4 17 -9 25 -29 19 -44 31 -51 61
-35 18 9 25 21 23 38 -3 54 0 59 41 66 22 4 38 11 34 16 -5 9 -83 11 -119 2z"/>
<path d="M7455 1041 c3 -6 -11 -11 -32 -13 -22 -2 -38 -9 -41 -18 -4 -12 -2
-13 9 -2 7 6 28 12 46 12 23 0 33 5 33 15 0 8 -5 15 -11 15 -5 0 -8 -4 -4 -9z"/>
<path d="M7655 1008 c-4 -26 -5 -53 -2 -60 2 -7 8 8 12 34 4 26 5 53 2 60 -2
7 -8 -8 -12 -34z"/>
<path d="M8365 1040 c-3 -5 -19 -10 -34 -10 -34 0 -71 -37 -70 -71 1 -22 2
-22 15 8 15 36 41 53 78 53 16 0 26 6 26 15 0 17 -6 19 -15 5z"/>
<path d="M9500 1019 c-14 -19 -33 -41 -44 -50 -12 -10 -15 -18 -8 -23 13 -8
86 78 80 95 -2 7 -15 -3 -28 -22z"/>
<path d="M9305 1015 c2 -16 7 -62 10 -102 4 -60 2 -74 -11 -81 -11 -6 -13 -11
-5 -16 26 -17 32 7 25 102 -3 54 -10 104 -15 112 -6 10 -7 5 -4 -15z"/>
<path d="M9410 1030 c0 -5 5 -10 11 -10 5 0 7 5 4 10 -3 6 -8 10 -11 10 -2 0
-4 -4 -4 -10z"/>
<path d="M7175 1010 c-3 -5 -1 -10 4 -10 6 0 11 5 11 10 0 6 -2 10 -4 10 -3 0
-8 -4 -11 -10z"/>
<path d="M7840 994 c-12 -30 -12 -55 -2 -71 5 -8 8 2 8 23 0 26 7 42 23 55 23
19 23 19 2 19 -14 0 -25 -9 -31 -26z"/>
<path d="M8156 928 c-10 -51 -22 -96 -29 -100 -6 -4 -8 -11 -3 -15 15 -16 34
30 47 113 17 115 6 117 -15 2z"/>
<path d="M8480 994 c-6 -14 -10 -35 -9 -47 1 -15 5 -9 13 17 7 22 21 43 32 47
17 7 17 8 -4 8 -15 1 -26 -7 -32 -25z"/>
<path d="M8804 995 c-4 -14 -4 -29 0 -32 3 -4 6 3 6 15 0 11 8 26 18 31 16 10
16 10 0 11 -11 0 -20 -10 -24 -25z"/>
<path d="M9616 1004 c-3 -9 -6 -32 -5 -52 l1 -37 9 39 c5 22 14 45 20 53 9 10
8 13 -4 13 -8 0 -18 -7 -21 -16z"/>
<path d="M7957 954 c-6 -60 -29 -90 -76 -100 -46 -10 -47 -12 -4 -13 34 -1 46
4 67 30 21 25 26 41 26 85 0 30 -2 54 -4 54 -2 0 -6 -25 -9 -56z"/>
<path d="M9090 991 c0 -11 -7 -27 -16 -36 -9 -9 -13 -19 -9 -23 8 -9 45 35 45
54 0 7 -4 16 -10 19 -5 3 -10 -3 -10 -14z"/>
<path d="M7278 971 c5 -37 -37 -86 -90 -103 -23 -8 -38 -17 -32 -20 14 -9 93
28 115 54 19 21 26 82 11 92 -5 3 -7 -8 -4 -23z"/>
<path d="M8601 972 c-2 -63 -37 -109 -94 -122 l-32 -8 38 -1 c63 -2 108 66 94
140 -3 19 -5 17 -6 -9z"/>
<path d="M9737 960 c-10 -58 -30 -87 -70 -104 -26 -12 -28 -15 -10 -15 52 -2
101 74 91 140 -3 17 -6 11 -11 -21z"/>
<path d="M2567 973 c-3 -10 -4 -38 -4 -62 2 -35 -2 -45 -18 -52 -14 -7 -10 -8
17 -4 20 3 39 1 43 -5 3 -5 11 -10 18 -10 6 0 3 6 -6 13 -11 8 -19 33 -23 75
-7 61 -18 79 -27 45z"/>
<path d="M7171 958 c0 -28 2 -30 9 -13 12 28 12 45 0 45 -5 0 -10 -15 -9 -32z"/>
<path d="M8903 961 c-12 -32 -45 -51 -89 -51 -21 0 -24 -5 -24 -34 0 -19 -7
-42 -16 -51 -19 -18 -14 -28 9 -19 10 4 17 21 19 47 3 40 4 42 39 45 44 4 82
40 77 72 -3 20 -4 19 -15 -9z"/>
<path d="M9236 965 c-3 -8 -1 -15 4 -15 6 0 10 7 10 15 0 8 -2 15 -4 15 -2 0
-6 -7 -10 -15z"/>
<path d="M2634 944 c3 -9 6 -18 6 -20 0 -2 4 -4 9 -4 6 0 9 9 8 20 -1 11 -8
20 -15 20 -9 0 -12 -6 -8 -16z"/>
<path d="M7420 950 c0 -5 -11 -10 -25 -10 -17 0 -25 -5 -24 -17 0 -11 3 -13 6
-5 2 6 18 12 34 12 19 0 29 5 29 15 0 8 -4 15 -10 15 -5 0 -10 -4 -10 -10z"/>
<path d="M8381 907 c-11 -33 -34 -51 -76 -60 -12 -3 -7 -5 13 -6 40 -1 82 36
82 74 0 34 -6 32 -19 -8z"/>
<path d="M7730 900 c-8 -5 -37 -12 -65 -17 -32 -4 -41 -8 -25 -10 38 -5 113
11 118 25 4 14 -6 15 -28 2z"/>
<path d="M9515 901 c-6 -6 -38 -11 -73 -13 -34 -1 -62 -6 -62 -11 0 -9 140 -1
149 8 1 2 1 9 -1 15 -2 7 -7 7 -13 1z"/>
<path d="M2440 891 c0 -5 5 -13 10 -16 6 -3 10 -2 10 4 0 5 -4 13 -10 16 -5 3
-10 2 -10 -4z"/>
<path d="M3145 890 c3 -5 8 -10 11 -10 2 0 4 5 4 10 0 6 -5 10 -11 10 -5 0 -7
-4 -4 -10z"/>
<path d="M9002 868 c-1 -20 -9 -44 -18 -52 -14 -15 -14 -16 1 -16 21 0 27 19
22 66 l-4 39 -1 -37z"/>
<path d="M9214 873 c-3 -10 -10 -26 -15 -36 -12 -21 -6 -32 10 -22 6 3 11 17
11 31 0 16 8 28 23 34 l22 9 -23 0 c-13 1 -25 -6 -28 -16z"/>
<path d="M3115 870 c3 -5 8 -10 11 -10 2 0 4 5 4 10 0 6 -5 10 -11 10 -5 0 -7
-4 -4 -10z"/>
<path d="M7456 872 c-4 -7 -26 -12 -49 -12 -23 0 -49 -5 -57 -11 -11 -8 3 -9
50 -4 71 7 74 8 68 26 -3 10 -6 10 -12 1z"/>
<path d="M8054 863 c-3 -10 -10 -29 -15 -42 -10 -25 -4 -41 10 -25 10 11 24
84 16 84 -3 0 -8 -8 -11 -17z"/>
<path d="M9110 840 c-8 -5 -11 -12 -7 -16 4 -4 13 -2 19 4 15 15 7 24 -12 12z"/>
<path d="M4675 680 c-3 -5 -3 -20 0 -32 5 -20 -1 -28 -32 -49 l-38 -24 -1 -90
c-2 -110 -5 -455 -4 -472 0 -7 7 -13 16 -13 13 0 14 3 4 14 -6 8 -10 25 -8 38
3 22 7 23 118 29 l115 5 -111 2 -111 2 -7 53 c-7 64 -8 135 0 162 5 19 14 21
111 23 91 1 104 0 99 -14 -3 -9 -6 -20 -6 -25 0 -5 -13 -9 -30 -9 -16 0 -30 4
-30 9 0 5 -18 8 -40 8 -30 -2 -40 -6 -40 -18 0 -9 -7 -20 -16 -23 -10 -4 -13
-13 -9 -25 3 -11 1 -22 -5 -26 -14 -9 42 -76 59 -70 7 3 19 -2 26 -12 11 -15
13 -15 25 6 l12 23 28 -27 c18 -18 30 -23 35 -15 4 6 5 71 4 145 -2 74 1 135
5 134 5 0 12 5 17 12 9 15 11 134 3 161 -5 19 -74 63 -74 48 0 -6 5 -10 12
-10 6 0 9 -3 5 -6 -3 -3 -2 -17 4 -31 7 -20 4 -29 -16 -49 l-24 -24 34 0 c33
0 35 2 35 32 0 17 -7 40 -17 50 -9 10 -11 18 -5 18 18 0 42 -42 42 -73 0 -30
-13 -49 -43 -60 -22 -8 -18 -31 6 -35 12 -2 17 3 17 17 0 12 5 21 10 21 6 0
10 -8 10 -18 0 -24 -53 -72 -82 -73 -19 0 -17 -3 12 -14 33 -13 29 -14 -69
-14 l-104 -1 6 40 c3 22 1 40 -4 40 -12 0 -12 37 1 45 6 4 6 12 -2 24 -6 11
-8 33 -4 55 6 30 14 40 42 52 19 8 34 20 34 28 0 19 51 31 61 15 4 -7 5 -17 3
-21 -3 -4 0 -8 6 -8 20 0 40 28 40 54 0 25 -2 26 -59 26 -33 0 -62 -4 -66 -10z
m80 -10 c4 -6 -9 -10 -32 -10 -28 0 -34 3 -23 10 20 13 47 13 55 0z m-5 -395
c11 -13 10 -14 -4 -9 -9 3 -16 10 -16 15 0 13 6 11 20 -6z m-40 -5 c0 -5 -4
-10 -10 -10 -5 0 -10 5 -10 10 0 6 5 10 10 10 6 0 10 -4 10 -10z m80 -10 c0
-5 -2 -10 -4 -10 -3 0 -8 5 -11 10 -3 6 -1 10 4 10 6 0 11 -4 11 -10z m-110
-60 c0 -5 -4 -10 -10 -10 -5 0 -10 5 -10 10 0 6 5 10 10 10 6 0 10 -4 10 -10z
m120 -36 c0 -8 -5 -12 -10 -9 -6 4 -8 11 -5 16 9 14 15 11 15 -7z m-96 -9 c3
-8 1 -15 -4 -15 -6 0 -10 7 -10 15 0 8 2 15 4 15 2 0 6 -7 10 -15z"/>
<path d="M10544 658 c-3 -4 -2 -18 2 -32 3 -15 1 -27 -8 -33 -7 -4 -14 -16
-14 -25 -1 -10 2 -15 7 -12 5 3 9 12 9 20 0 8 5 14 10 14 6 0 10 7 10 15 0 8
6 15 14 15 8 0 21 3 29 6 10 3 18 -2 22 -15 7 -25 25 -28 25 -5 0 8 5 12 10 9
6 -4 10 7 10 24 0 26 -4 31 -25 31 -18 0 -23 -4 -19 -15 5 -12 -2 -15 -32 -15
-35 0 -36 1 -18 14 18 14 18 15 -4 13 -13 -1 -26 -5 -28 -9z"/>
<path d="M1714 629 c-3 -5 -2 -18 1 -29 6 -20 38 -22 66 -4 8 4 9 3 5 -4 -4
-7 -2 -12 4 -12 6 0 8 -4 5 -10 -3 -5 1 -10 9 -10 8 0 17 8 19 18 4 13 5 12 6
-5 0 -12 7 -24 14 -26 9 -4 9 -6 -1 -6 -8 -1 -10 -6 -5 -13 18 -29 14 -58 -9
-67 -22 -8 -22 -8 -3 -18 35 -17 50 -10 53 25 2 22 -3 41 -15 54 -14 16 -14
20 -3 16 19 -6 40 -46 40 -78 0 -16 -11 -34 -30 -49 -34 -27 -38 -41 -11 -41
11 0 22 10 26 23 6 20 8 20 12 3 3 -10 0 -23 -6 -29 -7 -7 -7 -16 0 -29 12
-22 4 -52 -10 -44 -5 3 -7 15 -4 26 4 14 0 20 -11 20 -9 0 -16 -4 -16 -10 0
-5 -9 -10 -20 -10 -27 0 -25 -18 3 -23 12 -2 -20 -5 -70 -6 -61 -1 -93 -5 -93
-12 0 -8 35 -10 112 -8 92 3 112 1 115 -11 4 -12 3 -13 -5 -1 -11 16 -32 6
-32 -15 0 -8 -11 -14 -27 -15 -24 0 -25 -2 -9 -8 12 -5 16 -10 9 -14 -6 -4
-20 5 -31 19 -13 19 -23 24 -33 18 -8 -4 -23 -8 -34 -9 -11 0 -19 -6 -17 -12
1 -7 -4 -13 -11 -13 -10 0 -14 -14 -15 -45 0 -25 4 -45 9 -45 5 0 14 -12 19
-26 6 -16 14 -22 22 -18 9 6 9 9 0 12 -7 2 -12 10 -12 18 0 8 12 1 28 -18 l29
-31 19 31 c18 32 34 42 34 22 0 -5 -6 -10 -12 -10 -7 0 0 -12 14 -27 15 -15
31 -24 34 -20 4 4 9 44 11 90 6 122 12 118 12 -8 -1 -137 -1 -135 12 -135 5 0
8 4 5 9 -3 5 -6 119 -7 253 -2 254 -4 264 -46 287 -17 9 -23 21 -23 46 0 31
-3 35 -26 35 -14 0 -23 -4 -20 -9 3 -5 -10 -11 -29 -13 -35 -4 -50 7 -17 14
14 3 13 5 -5 10 -13 3 -26 2 -29 -3z m31 -409 c3 -5 1 -10 -4 -10 -6 0 -11 5
-11 10 0 6 2 10 4 10 3 0 8 -4 11 -10z m-29 -87 c-10 -10 -19 5 -10 18 6 11 8
11 12 0 2 -7 1 -15 -2 -18z"/>
<path d="M13289 632 c-1 -4 -1 -10 0 -14 1 -9 1 -9 -47 -11 -34 -2 -44 8 -14
16 13 4 11 5 -5 6 -19 1 -23 -4 -23 -32 0 -26 -6 -35 -29 -45 -16 -7 -34 -25
-39 -40 -15 -38 -12 -265 3 -252 13 10 15 104 3 116 -4 3 -3 15 3 26 7 14 7
23 -2 34 -9 11 -9 23 0 54 13 43 29 59 41 40 5 -8 10 -9 14 -2 3 6 0 13 -6 15
-8 3 -6 6 5 6 9 1 17 8 17 16 0 8 8 15 18 16 9 0 25 2 35 4 10 2 17 -3 17 -12
0 -10 6 -14 20 -10 11 3 20 2 20 -2 0 -4 14 -17 30 -29 20 -15 30 -18 30 -9 0
7 -13 21 -29 30 -24 14 -29 23 -26 46 2 22 -1 30 -16 34 -10 3 -20 2 -20 -1z"/>
<path d="M7444 577 c6 -30 3 -35 -28 -50 -27 -13 -37 -25 -46 -58 -6 -22 -9
-48 -5 -57 3 -9 6 -106 5 -214 l0 -198 116 0 c144 0 146 11 2 13 l-103 2 -3
117 -3 117 120 0 120 0 -22 -22 c-22 -23 -51 -28 -75 -14 -7 5 -9 14 -5 20 3
7 -3 4 -14 -6 -11 -10 -27 -15 -37 -11 -12 4 -16 1 -16 -15 0 -12 -6 -21 -15
-21 -8 0 -15 -8 -14 -17 0 -11 3 -13 6 -5 2 6 10 12 16 12 6 0 1 -10 -11 -23
-27 -29 -28 -44 -2 -52 11 -3 19 -9 19 -13 -4 -22 3 -33 19 -30 9 1 23 -1 31
-6 9 -6 18 -3 26 8 14 19 45 12 45 -11 0 -24 34 -10 41 17 6 20 7 17 8 -17 1
-24 6 -43 11 -43 13 0 11 468 -1 492 -5 10 -24 25 -41 34 l-32 17 37 -35 c60
-57 46 -134 -20 -110 l-28 10 34 1 c33 1 33 2 28 37 -6 37 -22 64 -39 64 -5 0
-3 -10 3 -22 9 -16 9 -23 0 -26 -6 -2 -11 -11 -11 -19 0 -26 -32 -42 -84 -43
-74 0 -51 -9 31 -11 67 -2 72 -4 70 -23 -1 -13 4 -21 13 -21 8 0 15 6 15 14 0
8 6 16 13 19 7 2 12 -5 12 -16 0 -11 -5 -22 -11 -24 -7 -2 -7 -12 0 -31 14
-37 5 -40 -128 -41 l-106 -1 -2 63 c-1 41 2 62 10 62 8 0 8 3 -1 12 -17 17
-15 69 3 95 8 11 26 24 40 27 14 4 25 13 25 20 0 8 10 17 23 21 21 7 21 8 -8
15 -16 4 -22 8 -13 9 29 2 31 21 2 21 -24 0 -26 -2 -20 -33z m116 -397 c0 -5
-2 -10 -4 -10 -3 0 -8 5 -11 10 -3 6 -1 10 4 10 6 0 11 -4 11 -10z m67 -62
c-2 -13 -4 -5 -4 17 -1 22 1 32 4 23 2 -10 2 -28 0 -40z m-182 2 c3 -5 1 -10
-4 -10 -6 0 -11 5 -11 10 0 6 2 10 4 10 3 0 8 -4 11 -10z"/>
<path d="M7522 570 c-1 -22 1 -40 5 -40 18 1 38 27 41 53 3 23 0 27 -20 27
-20 0 -23 -6 -26 -40z"/>
<path d="M10674 585 c11 -8 23 -15 26 -15 24 0 40 -104 18 -114 -10 -5 -10 -7
0 -12 15 -7 16 -36 1 -51 -8 -8 -8 -13 0 -17 16 -10 13 -46 -3 -46 -9 0 -12 7
-9 20 5 21 -11 28 -22 10 -3 -5 -16 -10 -28 -11 l-22 0 23 -9 c12 -5 22 -12
22 -15 0 -3 -43 -5 -95 -5 -79 0 -97 3 -102 16 -3 9 0 26 7 37 9 15 10 22 1
25 -14 5 -14 35 0 49 8 8 8 13 0 17 -16 10 -13 68 5 96 l16 25 -20 -23 c-19
-21 -20 -36 -20 -295 0 -149 3 -259 7 -242 l6 30 115 5 115 6 -115 4 -115 5
-2 117 -2 117 124 0 c70 0 125 -4 125 -9 0 -5 -6 -7 -14 -4 -8 3 -19 -3 -26
-15 -13 -25 -55 -28 -64 -5 -5 13 -9 14 -21 4 -8 -7 -22 -9 -31 -6 -11 4 -18
-1 -21 -14 -3 -11 -12 -20 -20 -20 -11 0 -14 -7 -10 -22 4 -12 2 -28 -4 -34
-8 -9 -5 -16 10 -26 12 -7 21 -21 21 -31 0 -12 6 -17 18 -15 9 1 23 -1 31 -6
9 -6 18 -3 27 8 14 20 30 14 53 -17 22 -31 34 -5 38 80 5 114 14 102 13 -18
-1 -57 4 -117 10 -134 l10 -30 -5 34 c-3 18 -5 139 -5 269 -1 135 -5 243 -11
253 -5 10 -24 26 -42 34 -29 14 -30 14 -13 0z m-54 -325 c0 -5 -5 -10 -11 -10
-5 0 -7 5 -4 10 3 6 8 10 11 10 2 0 4 -4 4 -10z m-40 -4 c0 -3 -4 -8 -10 -11
-5 -3 -10 -1 -10 4 0 6 5 11 10 11 6 0 10 -2 10 -4z m90 -18 c0 -4 -7 -8 -15
-8 -8 0 -15 4 -15 8 0 5 7 9 15 9 8 0 15 -4 15 -9z m-120 -58 c0 -5 -5 -10
-11 -10 -5 0 -7 5 -4 10 3 6 8 10 11 10 2 0 4 -4 4 -10z m120 -40 c0 -5 -2
-10 -4 -10 -3 0 -8 5 -11 10 -3 6 -1 10 4 10 6 0 11 -4 11 -10z"/>
<path d="M5520 581 c0 -6 4 -13 10 -16 6 -3 7 1 4 9 -7 18 -14 21 -14 7z"/>
<path d="M1688 554 c-15 -8 -32 -22 -37 -32 -6 -11 -10 -130 -10 -272 -1 -206
1 -251 11 -237 11 13 34 17 123 20 l110 3 -112 2 -111 2 -6 82 c-7 87 -3 215
7 225 3 3 1 14 -6 24 -9 15 -9 24 1 39 7 12 8 20 2 20 -5 0 -10 18 -10 40 0
40 28 80 56 80 7 0 16 5 19 10 9 14 -5 12 -37 -6z"/>
<path d="M10679 547 c11 -28 0 -44 -21 -31 -9 5 -9 2 1 -9 12 -15 11 -17 -3
-17 -10 0 -14 -4 -11 -10 3 -5 19 -10 36 -10 26 0 29 3 29 33 0 21 -8 41 -21
52 -20 19 -20 19 -10 -8z"/>
<path d="M8423 550 c2 -8 10 -15 17 -15 7 0 15 7 17 15 4 13 3 13 -6 0 -10
-13 -12 -13 -22 0 -9 13 -10 13 -6 0z"/>
<path d="M13317 532 c15 -9 6 -52 -11 -52 -6 0 -16 -10 -21 -22 -8 -18 -20
-24 -53 -26 -48 -4 -48 -22 1 -22 24 0 45 11 80 43 52 46 57 61 28 77 -23 12
-42 14 -24 2z"/>
<path d="M4685 470 c-18 -8 -18 -9 5 -8 14 0 36 4 50 8 24 8 24 8 -5 8 -16 0
-39 -3 -50 -8z"/>
<path d="M10578 453 c6 -2 18 -2 25 0 6 3 1 5 -13 5 -14 0 -19 -2 -12 -5z"/>
<path d="M10676 424 c-9 -23 -8 -24 14 -24 13 0 20 7 20 20 0 24 -25 27 -34 4z"/>
<path d="M1720 426 c0 -9 37 -12 55 -5 15 6 11 8 -17 8 -21 1 -38 -1 -38 -3z"/>
<path d="M10107 415 c-47 -16 -83 -49 -92 -82 -7 -30 31 -97 51 -89 8 3 13 0
11 -6 -1 -7 20 -18 48 -25 55 -14 155 -4 183 19 62 50 75 89 43 130 -23 29
-78 61 -92 53 -4 -3 -10 -1 -14 5 -9 14 -93 12 -138 -5z m3 -65 c0 -6 8 -5 20
2 17 11 22 10 30 -2 8 -12 12 -12 18 -2 5 8 30 12 70 11 60 -2 62 -2 72 -34
12 -36 5 -65 -17 -65 -8 0 -11 5 -8 10 3 6 1 10 -4 10 -6 0 -11 -4 -11 -10 0
-21 -20 -9 -21 13 l-2 22 -4 -23 c-3 -13 -10 -21 -16 -19 -7 3 -11 10 -9 16 3
17 -15 13 -22 -4 -7 -18 -52 -20 -60 -2 -5 10 -7 10 -12 0 -9 -20 -24 -15 -24
7 0 13 -5 18 -15 14 -8 -4 -15 -12 -15 -19 0 -7 -6 -15 -13 -18 -10 -4 -14 7
-16 39 -1 25 1 49 4 54 8 13 55 13 55 0z"/>
<path d="M10211 314 c0 -11 3 -14 6 -6 3 7 2 16 -1 19 -3 4 -6 -2 -5 -13z"/>
<path d="M4728 403 c7 -3 16 -2 19 1 4 3 -2 6 -13 5 -11 0 -14 -3 -6 -6z"/>
<path d="M7065 400 c-73 -18 -114 -47 -99 -71 4 -7 3 -9 -4 -5 -32 20 -14 -65
20 -94 30 -26 113 -50 160 -46 42 3 104 30 136 59 46 42 19 112 -54 143 -40
17 -119 24 -159 14z m-17 -72 c9 -9 12 -9 12 0 0 18 28 15 38 -4 8 -14 10 -14
15 -1 4 11 21 15 67 15 56 -1 62 -3 71 -25 14 -37 11 -73 -6 -73 -8 0 -15 6
-15 13 0 8 -2 9 -8 1 -4 -7 -19 -12 -34 -12 -24 0 -28 5 -28 29 0 15 -5 31
-10 34 -7 4 -9 -2 -5 -17 7 -32 -7 -49 -42 -52 -26 -2 -29 1 -25 19 4 20 4 20
-12 0 -16 -20 -16 -20 -22 4 l-7 24 -18 -24 c-16 -20 -20 -22 -29 -9 -10 16
-8 59 4 78 9 15 39 15 54 0z"/>
<path d="M10977 404 c-4 -4 -7 -31 -7 -61 0 -50 1 -53 25 -53 29 0 32 8 8 26
-11 8 -13 13 -5 14 14 0 17 30 2 30 -5 0 -10 5 -10 10 0 6 7 10 16 10 9 0 14
6 12 13 -5 14 -31 21 -41 11z"/>
<path d="M11051 368 c-7 -24 -15 -51 -17 -60 -4 -12 0 -18 10 -18 9 0 16 5 16
10 0 6 7 10 15 10 8 0 15 -4 15 -10 0 -5 7 -10 16 -10 10 0 14 6 10 18 -3 9
-8 31 -12 47 -7 32 -22 55 -34 55 -4 0 -12 -19 -19 -42z m26 -30 c-3 -8 -6 -5
-6 6 -1 11 2 17 5 13 3 -3 4 -12 1 -19z"/>
<path d="M11135 398 c-3 -7 -4 -33 -2 -57 2 -50 24 -67 29 -24 l4 28 11 -27
c14 -30 35 -47 41 -30 2 8 8 8 23 -1 39 -24 78 33 45 66 -19 19 -20 28 -3 25
6 -2 12 4 12 12 0 18 -41 26 -60 10 -10 -8 -14 -8 -17 1 -6 19 -28 1 -28 -24
-1 -20 -2 -20 -16 6 -16 29 -32 35 -39 15z m112 -59 c12 -14 11 -17 -5 -21
-16 -5 -19 1 -20 31 0 20 2 29 5 21 3 -8 12 -22 20 -31z"/>
<path d="M539 386 c-72 -13 -119 -37 -119 -61 0 -19 5 -19 33 -1 91 60 403 60
495 0 26 -17 38 -13 29 10 -22 56 -261 84 -438 52z"/>
<path d="M12033 391 c-62 -10 -117 -40 -122 -66 -3 -18 -2 -18 23 -2 90 60
413 61 503 2 12 -8 24 -11 27 -6 8 12 -34 46 -74 61 -43 15 -285 22 -357 11z"/>
<path d="M10563 383 c9 -2 23 -2 30 0 6 3 -1 5 -18 5 -16 0 -22 -2 -12 -5z"/>
<path d="M1240 369 c-19 -6 -41 -18 -48 -27 -7 -9 -16 -15 -20 -13 -11 6 -32
-40 -32 -70 0 -35 47 -77 105 -95 60 -18 79 -18 142 1 163 48 123 199 -56 211
-31 2 -72 -1 -91 -7z m-2 -71 c9 -9 12 -9 12 0 0 18 28 15 38 -4 8 -14 10 -14
15 -1 9 24 124 20 137 -4 15 -27 12 -76 -5 -83 -9 -3 -15 0 -15 10 0 9 -5 12
-12 8 -7 -4 -22 -9 -35 -10 -19 -2 -23 2 -23 26 0 16 -4 31 -9 34 -5 3 -8 -9
-7 -27 1 -29 -2 -32 -31 -35 -21 -2 -33 1 -33 9 0 9 -4 8 -15 -1 -12 -10 -16
-8 -24 11 l-10 24 -7 -22 c-3 -13 -12 -23 -19 -23 -15 0 -25 63 -12 85 10 18
38 20 55 3z"/>
<path d="M12713 363 c-58 -20 -97 -67 -89 -107 9 -42 32 -63 96 -86 63 -23 72
-24 137 -10 142 31 158 159 25 204 -56 20 -114 19 -169 -1z m7 -64 c0 -8 5 -8
15 1 12 10 18 10 30 0 10 -8 19 -9 28 -2 6 5 38 10 69 10 l58 0 12 -39 c9 -31
9 -42 -1 -52 -9 -9 -14 -9 -20 2 -6 9 -11 10 -15 2 -11 -17 -26 -13 -27 7 -1
16 -2 16 -6 0 -2 -10 -11 -18 -19 -18 -8 0 -14 8 -14 18 -1 16 -1 16 -11 0 -6
-11 -22 -18 -40 -18 -18 0 -28 4 -24 10 3 6 2 10 -4 10 -5 0 -11 -5 -13 -12
-2 -6 -10 -8 -17 -4 -7 5 -10 14 -7 22 3 8 0 11 -10 7 -7 -3 -14 -11 -14 -19
0 -8 -7 -14 -15 -14 -11 0 -15 11 -15 43 0 24 3 47 7 50 11 11 53 8 53 -4z"/>
<path d="M12816 265 c4 -8 8 -15 10 -15 2 0 4 7 4 15 0 8 -4 15 -10 15 -5 0
-7 -7 -4 -15z"/>
<path d="M12860 265 c0 -8 2 -15 4 -15 2 0 6 7 10 15 3 8 1 15 -4 15 -6 0 -10
-7 -10 -15z"/>
<path d="M13188 358 c9 -9 15 -9 24 0 9 9 7 12 -12 12 -19 0 -21 -3 -12 -12z"/>
<path d="M5959 350 c-54 -9 -129 -41 -146 -61 -26 -31 -25 -65 1 -96 89 -106
404 -91 445 21 32 86 -139 164 -300 136z m261 -65 c7 -8 10 -25 7 -37 -4 -12
-1 -28 5 -35 17 -21 0 -28 -20 -10 -23 21 -32 21 -32 3 0 -17 -32 -16 -43 2
-11 17 -34 15 -45 -4 -6 -11 -11 -13 -16 -5 -5 8 -12 7 -26 -2 -28 -17 -54 2
-58 41 -3 26 2 34 22 43 13 7 33 8 43 4 15 -6 12 -9 -14 -17 -23 -6 -33 -15
-33 -28 0 -24 18 -36 33 -21 8 8 6 11 -6 11 -9 0 -17 5 -17 10 0 6 11 10 25
10 17 0 25 -6 26 -17 0 -10 6 -4 12 14 18 48 27 51 53 18 l24 -30 0 27 c0 37
37 51 60 23z m-330 -10 c0 -9 -6 -12 -15 -9 -8 4 -15 1 -15 -5 0 -6 6 -11 14
-11 17 0 28 -24 20 -45 -6 -16 -22 -19 -48 -9 -23 9 -20 27 4 21 11 -3 20 -1
20 3 0 5 -9 12 -20 15 -22 7 -27 40 -7 48 25 10 47 7 47 -8z m42 -22 c3 -44
21 -47 26 -6 6 47 22 51 22 6 0 -47 -22 -73 -48 -56 -19 11 -31 49 -24 76 7
30 21 19 24 -20z"/>
<path d="M6185 270 c-4 -6 -3 -16 3 -22 6 -6 12 -6 17 2 4 6 3 16 -3 22 -6 6
-12 6 -17 -2z"/>
<path d="M605 334 l-30 -13 30 6 c32 6 41 11 34 17 -2 2 -17 -2 -34 -10z"/>
<path d="M673 343 c9 -2 25 -2 35 0 9 3 1 5 -18 5 -19 0 -27 -2 -17 -5z"/>
<path d="M12133 343 c9 -2 23 -2 30 0 6 3 -1 5 -18 5 -16 0 -22 -2 -12 -5z"/>
<path d="M746 331 c-4 -5 -2 -12 4 -16 5 -3 10 -1 10 6 0 12 34 9 74 -7 14 -5
17 -3 14 7 -5 16 -93 25 -102 10z"/>
<path d="M8090 325 c-13 -16 -6 -65 10 -65 6 0 10 -4 10 -10 0 -5 -7 -10 -15
-10 -17 0 -19 -9 -6 -28 13 -22 45 -9 56 22 8 24 6 31 -12 46 l-22 18 21 5
c18 5 19 8 8 21 -16 20 -34 20 -50 1z"/>
<path d="M8920 327 c-61 -14 -125 -49 -134 -73 -25 -65 15 -111 118 -139 121
-33 268 -6 322 58 27 33 27 66 -2 99 -46 50 -201 78 -304 55z m279 -56 c9 -6
12 -19 8 -39 -3 -16 -1 -34 4 -39 7 -7 7 -13 1 -17 -5 -3 -15 1 -22 9 -15 18
-31 20 -27 4 1 -6 -8 -12 -20 -14 -14 -1 -23 4 -23 12 0 7 -9 13 -20 13 -11 0
-20 -4 -20 -9 0 -5 -17 -11 -37 -13 -29 -4 -42 0 -60 18 -14 15 -23 18 -23 10
0 -25 -27 -39 -49 -26 -16 8 -21 21 -21 50 0 49 18 53 22 5 4 -42 22 -47 26
-8 4 36 19 52 28 30 5 -15 8 -15 21 -2 17 17 49 20 58 5 4 -6 -5 -10 -20 -10
-14 0 -28 -7 -32 -16 -7 -19 21 -51 31 -35 4 6 0 11 -8 11 -9 0 -16 5 -16 10
0 6 11 10 25 10 19 0 25 -5 26 -22 0 -16 5 -10 16 20 17 49 34 53 53 15 l14
-28 4 27 c3 23 12 31 42 37 3 0 11 -3 19 -8z m-327 -16 c-2 -5 -10 -9 -18 -7
-22 4 -17 -15 6 -21 12 -3 20 -14 20 -26 0 -17 -6 -21 -29 -21 -17 0 -33 5
-37 12 -5 8 0 9 14 6 12 -4 25 -2 28 3 3 5 1 9 -3 9 -5 0 -18 6 -28 14 -17 12
-17 16 -5 30 14 18 57 18 52 1z"/>
<path d="M9165 240 c-3 -5 1 -10 9 -10 9 0 16 5 16 10 0 6 -4 10 -9 10 -6 0
-13 -4 -16 -10z"/>
<path d="M12075 330 c-3 -6 1 -7 9 -4 18 7 21 14 7 14 -6 0 -13 -4 -16 -10z"/>
<path d="M12237 333 c-3 -4 5 -8 16 -8 12 -1 35 -4 50 -8 22 -6 28 -5 25 5 -5
14 -83 24 -91 11z"/>
<path d="M506 317 c-21 -15 -9 -29 34 -42 l25 -7 -23 17 c-13 9 -21 23 -18 31
7 17 4 17 -18 1z"/>
<path d="M900 320 c0 -5 7 -10 16 -10 8 0 12 5 9 10 -3 6 -10 10 -16 10 -5 0
-9 -4 -9 -10z"/>
<path d="M7827 323 c-4 -3 -7 -30 -7 -60 0 -46 3 -53 19 -53 27 0 35 17 14 29
-16 9 -16 12 -3 21 13 9 13 11 0 20 -13 9 -13 12 3 21 9 6 15 14 12 20 -7 10
-29 12 -38 2z"/>
<path d="M7894 274 c-9 -30 -14 -58 -11 -60 3 -3 15 1 27 8 18 10 24 10 27 1
7 -20 35 -16 29 5 -3 9 -10 36 -16 60 -15 59 -36 54 -56 -14z m33 -16 c-3 -8
-6 -5 -6 6 -1 11 2 17 5 13 3 -3 4 -12 1 -19z"/>
<path d="M7984 316 c-3 -7 -4 -33 -2 -57 3 -48 28 -68 28 -22 l1 28 15 -27
c26 -49 44 -36 44 32 0 47 -3 60 -15 60 -10 0 -15 -10 -15 -27 l-1 -28 -15 28
c-16 30 -32 35 -40 13z"/>
<path d="M9570 319 c-58 -4 -118 -12 -135 -19 -38 -14 -65 -39 -65 -58 0 -12
3 -12 23 0 33 22 123 46 202 53 84 8 244 -16 292 -45 33 -19 45 -17 36 6 -18
49 -164 74 -353 63z"/>
<path d="M11993 319 c-19 -19 -3 -38 38 -49 50 -14 83 0 44 18 -14 7 -23 17
-20 22 3 6 -1 7 -10 4 -14 -6 -11 -10 12 -26 l28 -20 -30 7 c-43 9 -58 24 -44
41 14 17 -2 19 -18 3z"/>
<path d="M12385 320 c-3 -5 1 -10 9 -10 9 0 16 5 16 10 0 6 -4 10 -9 10 -6 0
-13 -4 -16 -10z"/>
<path d="M2451 304 c0 -11 3 -14 6 -6 3 7 2 16 -1 19 -3 4 -6 -2 -5 -13z"/>
<path d="M7587 306 c-3 -8 -18 -16 -34 -19 -24 -3 -23 -4 8 -6 35 -1 61 21 40
34 -5 3 -11 -2 -14 -9z"/>
<path d="M550 299 c0 -5 5 -7 10 -4 6 3 10 8 10 11 0 2 -4 4 -10 4 -5 0 -10
-5 -10 -11z"/>
<path d="M702 291 c11 -19 23 -21 103 -21 91 0 135 7 135 19 0 4 -28 4 -62 0
-69 -8 -142 -3 -170 12 -17 9 -18 8 -6 -10z"/>
<path d="M2366 289 c-11 -17 -14 -18 -19 -4 -10 25 -27 17 -27 -12 l-1 -28
-20 28 c-11 15 -25 27 -30 27 -5 0 -9 -27 -9 -61 0 -43 3 -60 12 -57 7 3 15
15 18 28 l5 23 12 -27 c18 -39 43 -34 43 9 0 34 0 34 20 17 18 -14 18 -18 5
-20 -20 -4 -16 -36 5 -39 8 -2 21 1 29 6 16 10 18 64 2 69 -6 2 -11 8 -11 13
0 6 5 7 11 3 7 -4 9 2 7 16 -4 29 -34 34 -52 9z"/>
<path d="M403 279 c1 -10 3 -16 5 -14 3 2 16 -5 30 -15 24 -20 62 -27 62 -12
0 4 -22 19 -49 33 -45 23 -49 24 -48 8z"/>
<path d="M986 291 c-4 -6 -34 -20 -67 -32 -42 -15 -56 -25 -46 -30 20 -12 83
10 108 38 13 12 20 25 17 29 -3 3 -9 1 -12 -5z"/>
<path d="M2099 255 c-1 -25 -2 -51 -3 -57 -1 -7 9 -14 22 -16 24 -4 32 22 10
31 -10 4 -9 8 2 16 13 10 13 12 0 21 -13 9 -13 12 3 21 21 12 13 29 -14 29
-16 0 -19 -8 -20 -45z"/>
<path d="M2187 293 c-11 -20 -29 -104 -24 -110 4 -3 14 0 22 7 12 10 19 10 27
2 29 -29 36 5 14 67 -12 34 -30 50 -39 34z m23 -63 c0 -5 -4 -10 -10 -10 -5 0
-10 5 -10 10 0 6 5 10 10 10 6 0 10 -4 10 -10z"/>
<path d="M4244 291 c-106 -27 -133 -129 -47 -182 49 -30 157 -38 214 -15 147
59 96 193 -76 202 -33 2 -74 0 -91 -5z m176 -64 c19 -2 26 -9 33 -41 7 -29 6
-40 -4 -47 -9 -5 -16 -3 -20 8 -5 15 -6 15 -12 0 -11 -30 -27 -18 -29 21 l-1
37 -4 -37 c-4 -39 -19 -50 -30 -22 -5 15 -7 15 -15 0 -10 -18 -58 -22 -58 -5
0 6 -9 8 -20 4 -16 -5 -20 -2 -20 16 0 18 -2 19 -15 9 -8 -7 -15 -19 -15 -26
0 -8 -7 -14 -16 -14 -12 0 -14 10 -12 48 3 41 6 47 27 50 13 2 28 -2 32 -10 7
-10 9 -10 9 0 0 16 37 16 42 0 4 -10 9 -9 21 3 11 11 27 15 49 12 18 -3 44 -5
58 -6z"/>
<path d="M4335 190 c3 -5 8 -10 11 -10 2 0 4 5 4 10 0 6 -5 10 -11 10 -5 0 -7
-4 -4 -10z"/>
<path d="M11890 289 c0 -16 20 -49 20 -34 0 6 4 4 8 -2 10 -16 72 -29 72 -15
0 5 -14 15 -32 21 -17 6 -40 19 -50 28 -14 13 -18 13 -18 2z"/>
<path d="M12189 286 c11 -13 34 -16 110 -16 53 0 103 5 111 10 10 6 -16 9 -80
7 -52 -1 -108 2 -124 6 -26 7 -28 6 -17 -7z"/>
<path d="M12462 287 c-6 -7 -34 -21 -62 -31 -41 -15 -48 -21 -39 -32 9 -11 19
-9 60 12 28 14 53 32 56 40 8 20 -2 27 -15 11z"/>
<path d="M3690 279 c-60 -10 -103 -36 -109 -65 -3 -15 -1 -16 11 -6 8 6 46 21
84 33 86 27 216 32 309 13 37 -8 70 -12 73 -10 14 15 -12 34 -54 40 -64 8
-247 6 -314 -5z"/>
<path d="M6459 281 c-54 -10 -104 -35 -112 -55 -9 -23 3 -25 36 -6 18 10 72
27 121 36 75 15 103 16 185 7 53 -6 115 -18 139 -26 39 -14 42 -13 42 3 0 11
-12 23 -32 30 -40 15 -315 22 -379 11z"/>
<path d="M586 271 c-4 -5 3 -7 14 -4 23 6 26 13 6 13 -8 0 -17 -4 -20 -9z"/>
<path d="M638 263 c7 -3 16 -2 19 1 4 3 -2 6 -13 5 -11 0 -14 -3 -6 -6z"/>
<path d="M9540 260 c0 -5 7 -10 16 -10 8 0 12 5 9 10 -3 6 -10 10 -16 10 -5 0
-9 -4 -9 -10z"/>
<path d="M9598 263 c7 -3 16 -2 19 1 4 3 -2 6 -13 5 -11 0 -14 -3 -6 -6z"/>
<path d="M9638 263 c7 -3 16 -2 19 1 4 3 -2 6 -13 5 -11 0 -14 -3 -6 -6z"/>
<path d="M11048 224 c-66 -45 -78 -63 -59 -93 26 -40 138 3 162 62 13 31 -1
77 -23 77 -7 0 -43 -21 -80 -46z m16 -18 c-21 -15 -30 -14 -19 3 3 6 14 11 23
11 13 0 13 -2 -4 -14z"/>
<path d="M12128 263 c7 -3 16 -2 19 1 4 3 -2 6 -13 5 -11 0 -14 -3 -6 -6z"/>
<path d="M748 253 c6 -2 18 -2 25 0 6 3 1 5 -13 5 -14 0 -19 -2 -12 -5z"/>
<path d="M3092 242 c-100 -36 -132 -100 -76 -155 43 -43 111 -60 228 -55 88 3
107 7 147 30 28 17 51 39 59 58 11 28 11 34 -7 58 -10 15 -41 38 -68 52 -68
33 -205 39 -283 12z m-12 -64 c0 -5 -7 -8 -15 -4 -22 8 -18 -3 7 -23 29 -24
18 -54 -19 -49 -14 2 -28 9 -31 16 -3 9 3 11 22 6 33 -8 34 3 1 16 -31 12 -32
38 -2 49 24 9 37 6 37 -11z m55 -58 c9 0 15 14 17 38 2 20 8 36 13 34 6 -2 8
-11 6 -20 -3 -16 -2 -16 15 0 18 15 45 22 69 19 6 -1 -5 -8 -22 -16 -33 -14
-43 -38 -22 -51 6 -3 16 -1 22 5 8 8 6 11 -6 11 -9 0 -17 5 -17 10 0 6 11 10
25 10 19 0 25 -5 26 -22 0 -18 3 -15 13 12 16 44 40 50 60 13 l15 -28 1 26 c0
29 22 43 52 33 14 -4 18 -14 16 -38 -1 -17 2 -38 7 -46 6 -9 4 -12 -6 -8 -8 3
-22 9 -31 13 -11 4 -18 3 -18 -4 0 -16 -36 -13 -50 4 -10 12 -16 13 -27 3 -8
-6 -32 -13 -53 -15 -30 -3 -41 1 -53 17 l-14 21 -6 -21 c-4 -17 -12 -21 -34
-18 -24 3 -28 8 -31 36 -2 19 0 41 4 50 6 12 9 4 12 -25 2 -28 8 -43 17 -43z"/>
<path d="M3380 164 c0 -8 5 -12 10 -9 6 3 10 10 10 16 0 5 -4 9 -10 9 -5 0
-10 -7 -10 -16z"/>
<path d="M5240 243 c-12 -9 -20 -10 -20 -4 0 24 -29 9 -32 -16 l-4 -28 -14 28
c-20 41 -35 27 -38 -36 -2 -46 0 -57 13 -57 10 0 15 9 15 28 l0 27 20 -32 c27
-45 40 -41 40 12 0 45 0 45 20 25 24 -24 26 -34 4 -26 -12 4 -15 0 -12 -17 4
-30 43 -35 58 -7 12 22 5 60 -11 60 -5 0 -9 5 -9 11 0 5 5 7 10 4 6 -3 10 4
10 18 0 27 -20 31 -50 10z"/>
<path d="M9690 252 c0 -5 20 -8 45 -7 25 1 45 -2 45 -7 0 -5 5 -6 10 -3 6 4 8
11 5 16 -8 11 -105 12 -105 1z"/>
<path d="M12218 253 c7 -3 16 -2 19 1 4 3 -2 6 -13 5 -11 0 -14 -3 -6 -6z"/>
<path d="M120 237 c-26 -7 -63 -23 -83 -36 -34 -21 -37 -26 -37 -71 0 -42 4
-51 29 -69 69 -49 231 -64 326 -30 31 12 35 17 34 49 0 19 -3 29 -6 23 -7 -18
-21 -16 -26 4 -4 17 -5 17 -6 1 -1 -23 -17 -23 -30 -1 -10 17 -12 17 -25 1
-17 -23 -37 -23 -30 0 25 77 39 89 62 52 16 -26 35 -26 27 -1 -4 14 0 21 15
26 23 7 44 -5 23 -12 -24 -9 -13 -34 23 -55 19 -11 40 -32 45 -45 5 -13 14
-21 19 -18 6 4 -5 34 -27 77 -35 65 -42 73 -88 91 -63 24 -185 31 -245 14z
m140 -67 c0 -4 -14 -10 -31 -14 -22 -4 -30 -11 -27 -23 2 -10 12 -19 23 -21
20 -4 20 -4 0 12 -19 15 -19 15 8 16 31 0 38 -29 12 -50 -13 -11 -21 -10 -43
7 -27 20 -27 20 -43 0 -13 -17 -18 -18 -37 -8 -17 9 -22 21 -22 51 0 22 5 40
10 40 6 0 10 -16 10 -35 0 -24 5 -35 15 -35 15 0 19 10 16 42 -1 9 3 19 9 23
6 3 10 -3 10 -17 l0 -23 18 21 c9 12 24 24 32 26 18 6 40 -1 40 -12z m-180 0
c0 -5 -7 -10 -15 -10 -22 0 -18 -17 5 -23 24 -6 27 -42 4 -51 -8 -3 -25 -1
-37 6 -22 12 -21 12 8 18 l30 7 -27 11 c-31 13 -34 22 -16 40 15 15 48 16 48
2z"/>
<path d="M3844 238 c12 -7 21 -7 28 0 6 6 0 10 -18 10 -23 0 -24 -2 -10 -10z"/>
<path d="M4977 243 c-4 -3 -7 -30 -7 -60 0 -50 1 -53 25 -53 29 0 33 14 8 29
-16 9 -16 12 -3 21 13 9 13 11 0 20 -13 9 -13 12 3 21 9 6 15 14 12 20 -7 10
-29 12 -38 2z"/>
<path d="M5045 194 c-9 -31 -14 -58 -12 -61 3 -2 15 2 27 9 18 10 24 10 27 1
5 -14 34 -18 32 -5 -3 26 -36 106 -46 109 -6 3 -18 -19 -28 -53z m35 -9 c0 -8
-4 -15 -10 -15 -5 0 -7 7 -4 15 4 8 8 15 10 15 2 0 4 -7 4 -15z"/>
<path d="M6615 240 c3 -5 12 -7 20 -3 21 7 19 13 -6 13 -11 0 -18 -4 -14 -10z"/>
<path d="M9453 243 c-15 -6 -17 -33 -3 -33 5 0 14 9 20 20 11 20 6 23 -17 13z"/>
<path d="M9845 240 c3 -5 10 -10 16 -10 5 0 9 5 9 10 0 6 -7 10 -16 10 -8 0
-12 -4 -9 -10z"/>
<path d="M11620 241 c-87 -19 -150 -67 -150 -113 0 -30 61 -85 111 -99 62 -19
214 -16 262 4 31 13 37 21 37 46 0 17 -4 31 -10 31 -5 0 -10 -6 -10 -14 0 -18
-40 -9 -57 13 -11 14 -13 14 -27 -4 -8 -11 -18 -17 -21 -13 -4 4 -16 3 -26 -3
-52 -27 -84 54 -34 87 13 8 29 13 35 9 17 -11 11 -23 -12 -27 -27 -4 -39 -48
-14 -48 19 0 21 16 4 23 -7 3 -1 6 15 6 15 1 27 -4 27 -11 0 -7 8 5 18 26 l18
40 27 -35 27 -34 0 28 c0 27 24 47 38 32 4 -4 1 -10 -5 -12 -20 -7 -15 -27 9
-43 13 -8 37 -30 55 -48 28 -29 33 -31 33 -14 0 11 -3 22 -7 24 -12 5 -68 122
-65 133 2 6 -2 5 -8 -2 -9 -8 -20 -8 -47 3 -41 17 -174 26 -223 15z m-50 -70
c0 -5 -10 -12 -22 -14 l-23 -4 23 -8 c26 -8 31 -50 7 -59 -20 -7 -45 3 -45 19
0 9 8 11 23 8 22 -6 22 -6 -2 14 -30 25 -23 53 14 53 14 0 25 -4 25 -9z m40
-27 c0 -45 24 -42 28 4 4 43 22 41 22 -2 0 -44 -24 -70 -50 -56 -26 14 -33 46
-21 88 1 1 6 2 11 2 6 0 10 -16 10 -36z"/>
<path d="M3752 225 c-16 -19 -3 -19 22 0 14 11 16 15 5 15 -8 -1 -20 -7 -27
-15z"/>
<path d="M6525 230 c3 -5 14 -10 23 -10 15 0 15 2 2 10 -20 13 -33 13 -25 0z"/>
<path d="M9496 231 c-3 -5 0 -11 7 -14 8 -3 14 1 14 9 0 16 -13 19 -21 5z"/>
<path d="M818 223 c6 -2 18 -2 25 0 6 3 1 5 -13 5 -14 0 -19 -2 -12 -5z"/>
<path d="M3900 220 c0 -5 13 -7 30 -4 17 4 36 1 45 -6 8 -6 19 -9 26 -5 19 12
-11 25 -58 25 -24 0 -43 -4 -43 -10z"/>
<path d="M6666 221 c-3 -4 13 -7 37 -5 24 2 45 -2 49 -9 4 -6 10 -8 13 -5 4 4
4 11 0 17 -7 13 -91 15 -99 2z"/>
<path d="M12048 223 c7 -3 16 -2 19 1 4 3 -2 6 -13 5 -11 0 -14 -3 -6 -6z"/>
<path d="M12293 223 c9 -2 23 -2 30 0 6 3 -1 5 -18 5 -16 0 -22 -2 -12 -5z"/>
<path d="M723 213 c9 -2 25 -2 35 0 9 3 1 5 -18 5 -19 0 -27 -2 -17 -5z"/>
<path d="M6427 209 c-18 -11 -18 -11 0 -23 10 -7 30 -16 45 -19 14 -4 34 -10
45 -14 10 -3 15 -2 10 3 -5 5 -25 14 -45 20 -25 7 -37 16 -36 27 1 9 1 17 0
17 0 0 -9 -5 -19 -11z"/>
<path d="M6820 210 c0 -5 7 -10 15 -10 8 0 15 5 15 10 0 6 -7 10 -15 10 -8 0
-15 -4 -15 -10z"/>
<path d="M9350 210 c0 -21 78 -66 92 -52 5 5 -10 18 -42 34 -27 14 -50 22 -50
18z"/>
<path d="M9650 208 c0 -9 27 -16 70 -19 44 -2 159 12 164 20 2 3 -49 6 -115 6
-65 0 -119 -3 -119 -7z"/>
<path d="M9905 198 c-16 -10 -50 -24 -75 -30 -40 -11 -42 -13 -20 -18 26 -7
95 14 119 35 24 23 7 32 -24 13z"/>
<path d="M11179 209 c0 -8 -2 -21 -4 -29 -2 -8 -5 -26 -8 -40 -4 -20 -9 -24
-32 -22 -59 7 -77 -56 -25 -86 16 -9 30 -20 30 -24 0 -5 29 -8 64 -8 74 0 76
2 76 112 0 59 -3 69 -22 82 -36 23 -78 31 -79 15z"/>
<path d="M12208 213 c6 -2 18 -2 25 0 6 3 1 5 -13 5 -14 0 -19 -2 -12 -5z"/>
<path d="M3650 200 c0 -5 9 -14 19 -20 31 -16 37 -12 13 10 -23 22 -32 25 -32
10z"/>
<path d="M3712 198 c2 -6 10 -13 16 -14 7 -1 8 0 2 3 -5 2 -8 9 -4 14 3 5 0 9
-6 9 -7 0 -10 -5 -8 -12z"/>
<path d="M6476 201 c-3 -5 1 -12 10 -15 22 -8 25 -4 9 11 -8 7 -16 9 -19 4z"/>
<path d="M9470 206 c0 -2 9 -6 20 -9 11 -3 18 -1 14 4 -5 9 -34 13 -34 5z"/>
<path d="M3560 177 c0 -21 84 -64 94 -48 3 5 -17 20 -44 34 -32 17 -50 22 -50
14z"/>
<path d="M3866 177 c6 -16 62 -29 69 -16 3 4 26 6 52 4 27 -2 57 1 68 5 13 6
-14 9 -72 9 -50 1 -99 4 -107 7 -12 4 -15 2 -10 -9z"/>
<path d="M6320 187 c0 -2 8 -13 18 -23 23 -26 70 -46 77 -33 4 5 -9 16 -29 24
-19 8 -37 19 -41 25 -6 9 -25 14 -25 7z"/>
<path d="M6628 171 c4 -10 27 -12 106 -9 152 7 160 23 12 23 -100 0 -122 -3
-118 -14z"/>
<path d="M7937 176 c-10 -8 -16 -19 -15 -26 2 -6 -8 -19 -22 -28 l-25 -16 20
24 20 24 -34 -20 c-61 -34 -67 -75 -14 -95 28 -10 99 26 127 63 37 52 -9 111
-57 74z"/>
<path d="M9628 183 c6 -2 18 -2 25 0 6 3 1 5 -13 5 -14 0 -19 -2 -12 -5z"/>
<path d="M865 159 c-4 -6 -5 -12 -2 -15 7 -7 37 7 37 17 0 13 -27 11 -35 -2z"/>
<path d="M3710 160 c0 -5 5 -10 10 -10 6 0 10 5 10 10 0 6 -4 10 -10 10 -5 0
-10 -4 -10 -10z"/>
<path d="M12355 159 c-4 -6 -5 -13 -2 -16 7 -7 27 6 27 18 0 12 -17 12 -25 -2z"/>
<path d="M520 150 c0 -5 5 -10 10 -10 6 0 10 5 10 10 0 6 -4 10 -10 10 -5 0
-10 -4 -10 -10z"/>
<path d="M2197 133 c-20 -14 -35 -29 -32 -31 3 -3 11 0 17 6 18 18 33 15 17
-4 -8 -10 -21 -13 -36 -9 -54 13 -78 -64 -27 -87 32 -15 112 26 137 70 18 30
18 34 3 57 -21 32 -32 31 -79 -2z"/>
<path d="M6548 153 c7 -3 16 -2 19 1 4 3 -2 6 -13 5 -11 0 -14 -3 -6 -6z"/>
<path d="M6821 142 c-34 -12 -40 -17 -28 -24 10 -5 23 -5 34 1 10 5 26 12 36
15 9 3 17 10 17 16 0 12 -3 12 -59 -8z"/>
<path d="M9478 153 c7 -3 16 -2 19 1 4 3 -2 6 -13 5 -11 0 -14 -3 -6 -6z"/>
<path d="M12010 149 c0 -5 5 -7 10 -4 6 3 10 8 10 11 0 2 -4 4 -10 4 -5 0 -10
-5 -10 -11z"/>
<path d="M8037 142 c-3 -4 -8 -28 -12 -54 -7 -46 -9 -48 -39 -48 -30 0 -56
-15 -56 -32 0 -4 45 -8 101 -8 l100 0 -3 52 c-3 49 -5 53 -45 75 -23 12 -44
20 -46 15z"/>
<path d="M9728 143 c12 -2 30 -2 40 0 9 3 -1 5 -23 4 -22 0 -30 -2 -17 -4z"/>
<path d="M4032 133 c-6 -2 -10 -8 -7 -13 6 -10 45 -1 45 11 0 10 -17 11 -38 2z"/>
<path d="M9350 90 c0 -37 4 -50 14 -50 8 0 22 -10 30 -22 31 -43 28 -7 -5 57
-18 36 -34 65 -36 65 -2 0 -3 -22 -3 -50z"/>
<path d="M12315 129 c-4 -6 -4 -13 -1 -16 3 -4 6 -1 6 6 0 7 5 9 12 5 7 -4 8
-3 4 4 -9 15 -13 15 -21 1z"/>
<path d="M3688 123 c7 -3 16 -2 19 1 4 3 -2 6 -13 5 -11 0 -14 -3 -6 -6z"/>
<path d="M5311 114 c0 -11 3 -14 6 -6 3 7 2 16 -1 19 -3 4 -6 -2 -5 -13z"/>
<path d="M3933 113 c9 -2 23 -2 30 0 6 3 -1 5 -18 5 -16 0 -22 -2 -12 -5z"/>
<path d="M6708 113 c7 -3 16 -2 19 1 4 3 -2 6 -13 5 -11 0 -14 -3 -6 -6z"/>
<path d="M860 101 c0 -14 18 -23 31 -15 8 4 7 9 -2 15 -18 11 -29 11 -29 0z"/>
<path d="M2306 88 c-3 -13 -7 -38 -10 -55 l-5 -33 59 0 60 0 0 33 c0 28 -6 37
-39 55 -49 28 -59 28 -65 0z"/>
<path d="M3560 62 c0 -47 2 -52 25 -58 14 -4 28 -4 31 -2 4 5 -21 61 -43 93
-12 17 -13 14 -13 -33z"/>
<path d="M5043 63 c-35 -24 -63 -49 -63 -54 0 -5 33 -9 73 -9 73 0 74 0 92 33
14 27 15 38 6 55 -17 31 -37 26 -108 -25z m22 -13 c-10 -11 -20 -18 -23 -15
-7 6 18 35 31 35 5 0 2 -9 -8 -20z"/>
<path d="M6320 61 c0 -46 2 -51 25 -57 37 -9 39 -1 17 49 -29 65 -42 68 -42 8z"/>
<path d="M12340 101 c0 -10 30 -24 37 -17 3 3 2 9 -2 15 -8 13 -35 15 -35 2z"/>
<path d="M11988 93 c7 -3 16 -2 19 1 4 3 -2 6 -13 5 -11 0 -14 -3 -6 -6z"/>
<path d="M9815 79 c-4 -6 -5 -13 -2 -16 7 -7 27 6 27 18 0 12 -17 12 -25 -2z"/>
<path d="M10956 68 c-15 -58 -11 -63 60 -66 63 -3 65 -3 62 20 -2 14 -18 31
-43 45 -51 29 -71 29 -79 1z"/>
<path d="M4797 63 c13 -5 -13 -36 -38 -46 -8 -4 6 -5 31 -4 40 2 45 5 48 27 2
21 -1 25 -25 26 -15 1 -23 0 -16 -3z"/>
<path d="M4025 49 c-12 -19 5 -23 22 -6 16 16 16 17 1 17 -9 0 -20 -5 -23 -11z"/>
<path d="M5176 44 c-14 -38 -7 -44 49 -44 68 0 74 20 12 44 -52 20 -53 20 -61
0z"/>
<path d="M6795 49 c-4 -6 -5 -13 -2 -16 7 -7 27 6 27 18 0 12 -17 12 -25 -2z"/>
<path d="M3711 34 c0 -11 3 -14 6 -6 3 7 2 16 -1 19 -3 4 -6 -2 -5 -13z"/>
<path d="M6758 43 c7 -3 16 -2 19 1 4 3 -2 6 -13 5 -11 0 -14 -3 -6 -6z"/>
<path d="M8162 25 c0 -17 2 -22 5 -12 2 9 2 23 0 30 -3 6 -5 -1 -5 -18z"/>
<path d="M10659 28 c-14 -26 -11 -29 24 -26 24 2 33 8 35 25 3 19 -1 23 -23
21 -15 -2 -31 -10 -36 -20z"/>
<path d="M910 25 c-16 -19 -3 -19 16 0 9 8 11 15 6 15 -5 0 -15 -7 -22 -15z"/>
<path d="M9810 30 c-12 -7 -12 -10 3 -16 21 -8 29 -3 19 13 -5 8 -13 9 -22 3z"/>
<path d="M12400 25 c-7 -9 -11 -17 -9 -20 3 -2 10 5 17 15 14 24 10 26 -8 5z"/>
<path d="M596 15 c-16 -12 -17 -15 -4 -15 8 0 21 7 28 15 16 19 1 19 -24 0z"/>
<path d="M5659 13 c-13 -16 -12 -17 4 -4 16 13 21 21 13 21 -2 0 -10 -8 -17
-17z"/>
<path d="M12084 15 c-16 -12 -17 -14 -3 -15 9 0 19 7 23 15 7 19 5 19 -20 0z"/>
<path d="M1865 10 c-3 -5 1 -10 9 -10 9 0 16 5 16 10 0 6 -4 10 -9 10 -6 0
-13 -4 -16 -10z"/>
<path d="M7805 10 c-4 -6 6 -10 22 -10 22 0 25 2 13 10 -19 12 -27 12 -35 0z"/>
<path d="M2238 3 c6 -2 18 -2 25 0 6 3 1 5 -13 5 -14 0 -19 -2 -12 -5z"/>
</g>
</svg>
